<svg width="20" height="19" viewBox="0 0 20 19" fill="none" xmlns="http://www.w3.org/2000/svg">
<path d="M14.6787 3.66406C14.0795 3.66406 13.5783 4.13935 13.5783 4.72025C13.5783 5.31172 14.0686 5.787 14.6787 5.787C15.2889 5.787 15.7792 5.31172 15.7792 4.72025C15.7792 4.13935 15.2889 3.66406 14.6787 3.66406Z" fill="url(#paint0_linear_1_319)"/>
<path d="M9.80892 5.02637C7.27022 5.02637 5.21094 7.02256 5.21094 9.48347C5.21094 11.9444 7.27022 13.9406 9.80892 13.9406C12.3476 13.9406 14.4069 11.9444 14.4069 9.48347C14.4069 7.03312 12.3476 5.02637 9.80892 5.02637ZM9.80892 12.3457C8.18546 12.3457 6.86707 11.0677 6.86707 9.49403C6.86707 7.92032 8.18546 6.64233 9.80892 6.64233C11.4324 6.64233 12.7507 7.92032 12.7507 9.49403C12.7616 11.0677 11.4324 12.3457 9.80892 12.3457Z" fill="url(#paint1_linear_1_319)"/>
<path d="M13.4584 18.5452H6.0058C2.91143 18.5452 0.394531 16.1054 0.394531 13.1059V5.87099C0.394531 2.87143 2.91143 0.431641 6.0058 0.431641H13.4584C16.5528 0.431641 19.0697 2.87143 19.0697 5.87099V13.0953C19.0697 16.1054 16.5528 18.5452 13.4584 18.5452ZM6.0058 2.14265C3.88114 2.14265 2.14872 3.82199 2.14872 5.88155V13.1059C2.14872 15.1654 3.88114 16.8448 6.0058 16.8448H13.4584C15.5831 16.8448 17.3155 15.1654 17.3155 13.1059V5.87099C17.3155 3.81143 15.5831 2.1321 13.4584 2.1321H6.0058V2.14265Z" fill="url(#paint2_linear_1_319)"/>
<defs>
<linearGradient id="paint0_linear_1_319" x1="13.5783" y1="5.23319" x2="15.7792" y2="5.23619" gradientUnits="userSpaceOnUse">
<stop stop-color="#00C0B4"/>
<stop offset="1" stop-color="#29C9F3"/>
</linearGradient>
<linearGradient id="paint1_linear_1_319" x1="5.21094" y1="11.6151" x2="14.4069" y2="11.6276" gradientUnits="userSpaceOnUse">
<stop stop-color="#00C0B4"/>
<stop offset="1" stop-color="#29C9F3"/>
</linearGradient>
<linearGradient id="paint2_linear_1_319" x1="0.394531" y1="13.8199" x2="19.0699" y2="13.8452" gradientUnits="userSpaceOnUse">
<stop stop-color="#00C0B4"/>
<stop offset="1" stop-color="#29C9F3"/>
</linearGradient>
</defs>
</svg>
