<svg width="18" height="16" viewBox="0 0 18 16" fill="none" xmlns="http://www.w3.org/2000/svg">
<path d="M1.12496 5.43718H4.49151V15.5147H1.12496V5.43718ZM2.81418 0.431641C3.89671 0.431641 4.76511 1.24006 4.76511 2.24781C4.76511 3.24448 3.89671 4.06397 2.81418 4.06397C1.73165 4.06397 0.863251 3.24448 0.863251 2.24781C0.863251 1.24006 1.73165 0.431641 2.81418 0.431641Z" fill="url(#paint0_linear_1_316)"/>
<path d="M6.6104 5.43734H9.83419V6.81052H9.88178C10.3338 6.01318 11.4282 5.18262 13.0699 5.18262C16.4721 5.18262 17.1026 7.26457 17.1026 9.97774V15.5038H13.7361V10.609C13.7361 9.43511 13.7123 7.9401 11.9874 7.9401C10.2387 7.9401 9.96504 9.21362 9.96504 10.5315V15.5148H6.59851V5.43734H6.6104Z" fill="url(#paint1_linear_1_316)"/>
<defs>
<linearGradient id="paint0_linear_1_316" x1="0.863251" y1="11.58" x2="4.76515" y2="11.5813" gradientUnits="userSpaceOnUse">
<stop stop-color="#00C0B4"/>
<stop offset="1" stop-color="#29C9F3"/>
</linearGradient>
<linearGradient id="paint1_linear_1_316" x1="6.59851" y1="12.8195" x2="17.1027" y2="12.8335" gradientUnits="userSpaceOnUse">
<stop stop-color="#00C0B4"/>
<stop offset="1" stop-color="#29C9F3"/>
</linearGradient>
</defs>
</svg>
