<svg width="44" height="42" viewBox="0 0 44 42" fill="none" xmlns="http://www.w3.org/2000/svg">
<path d="M0 42H14.8602C14.9763 41.7667 14.9763 41.4167 14.9763 41.1833C14.9763 39.9 14.2797 38.9667 13.0026 38.5C11.7256 38.0333 9.63588 37.5667 6.73351 37.1C4.06332 36.6333 1.74142 36.1667 0 35.7V42H0ZM43.1873 15.1667C42.2586 15.6333 41.562 16.45 41.0976 17.3833C40.6332 18.3167 40.285 19.4833 40.285 20.65C40.285 21.9333 40.5172 22.9833 41.0976 23.9167C41.6781 24.85 42.3747 25.55 43.1873 26.1333L43.4195 26.25C43.7678 24.6167 44 22.8667 44 21C44 18.9 43.7678 16.9167 43.1873 15.1667ZM0 0.116667V6.3C1.74142 6.3 3.13456 5.71667 4.17942 4.55C5.34037 3.38333 5.80475 1.86667 5.80475 0H0V0.116667ZM10.5646 0.116667C10.5646 2.1 10.1003 3.85 9.1715 5.36667C8.35884 7 7.08179 8.16667 5.45646 9.1C3.83113 9.91667 2.08971 10.3833 0 10.3833V15.9833C2.3219 15.05 5.22427 14.5833 8.47493 14.5833C10.3325 14.5833 12.19 14.7 14.0475 15.05V11.0833H19.9683C22.9868 11.0833 25.4248 11.9 27.1662 13.65C29.0237 15.4 29.8364 17.85 29.8364 21C29.8364 24.15 28.9076 26.6 27.1662 28.35C25.3087 30.1 22.9868 30.9167 19.9683 30.9167H14.0475V22.1667C12.3061 21.7 10.4485 21.4667 8.35884 21.4667C5.80475 21.4667 3.94723 21.8167 2.67018 22.6333C1.39314 23.3333 0.69657 24.3833 0.69657 25.6667C0.69657 27.0667 1.39314 28 2.78628 28.5833C4.17942 29.1667 6.38522 29.75 9.2876 30.2167C12.19 30.6833 14.628 31.15 16.4855 31.85C18.343 32.4333 19.9683 33.4833 21.3615 34.8833C22.7546 36.2833 23.3351 38.3833 23.3351 40.95C23.3351 41.3 23.3351 41.65 23.3351 42C26.8179 41.7667 30.0686 40.95 32.8549 39.55C34.4802 38.7333 35.9894 37.8 37.3826 36.6333V31.0333H41.7942C41.9103 30.8 42.0264 30.6833 42.0264 30.45C41.4459 30.2167 40.9815 29.9833 40.5172 29.75C39.0079 28.9333 37.7309 27.65 36.9182 26.1333C35.9894 24.6167 35.6412 22.75 35.6412 20.7667C35.6412 18.7833 36.1055 16.9167 36.9182 15.4C37.3826 14.4667 38.0792 13.7667 38.7757 13.0667H38.3113V6.41667C36.8021 4.9 34.9446 3.61667 32.8549 2.68333C29.2559 0.933333 25.1926 0.116667 20.5488 0.116667H10.5646Z" fill="url(#paint0_linear_1_52)"/>
<defs>
<linearGradient id="paint0_linear_1_52" x1="1.673e-07" y1="31.0435" x2="44.0003" y2="31.1041" gradientUnits="userSpaceOnUse">
<stop stop-color="#00C0B4"/>
<stop offset="1" stop-color="#29C9F3"/>
</linearGradient>
</defs>
</svg>
