<svg width="154" height="27" viewBox="0 0 154 27" fill="none" xmlns="http://www.w3.org/2000/svg">
<path d="M0.383789 0.799941H11.3998C14.0878 0.799941 16.4758 1.32794 18.5638 2.38394C20.6518 3.41594 22.2718 4.89194 23.4238 6.81194C24.5758 8.70794 25.1518 10.9039 25.1518 13.3999C25.1518 15.8959 24.5758 18.1039 23.4238 20.0239C22.2718 21.9199 20.6518 23.3959 18.5638 24.4519C16.4758 25.4839 14.0878 25.9999 11.3998 25.9999H0.383789V0.799941ZM11.1838 22.0399C13.0318 22.0399 14.6518 21.6919 16.0438 20.9959C17.4598 20.2759 18.5398 19.2679 19.2838 17.9719C20.0518 16.6519 20.4358 15.1279 20.4358 13.3999C20.4358 11.6719 20.0518 10.1599 19.2838 8.86394C18.5398 7.54394 17.4598 6.53594 16.0438 5.83994C14.6518 5.11994 13.0318 4.75994 11.1838 4.75994H5.06379V22.0399H11.1838Z" fill="white"/>
<path d="M46.898 26.3599C44.33 26.3599 42.014 25.8079 39.95 24.7039C37.886 23.5759 36.266 22.0279 35.09 20.0599C33.914 18.0679 33.326 15.8479 33.326 13.3999C33.326 10.9519 33.914 8.74394 35.09 6.77594C36.266 4.78394 37.886 3.23594 39.95 2.13194C42.014 1.00394 44.33 0.439941 46.898 0.439941C49.466 0.439941 51.782 1.00394 53.846 2.13194C55.91 3.23594 57.53 4.77194 58.706 6.73994C59.882 8.70794 60.47 10.9279 60.47 13.3999C60.47 15.8719 59.882 18.0919 58.706 20.0599C57.53 22.0279 55.91 23.5759 53.846 24.7039C51.782 25.8079 49.466 26.3599 46.898 26.3599ZM46.898 22.2559C48.578 22.2559 50.09 21.8839 51.434 21.1399C52.778 20.3719 53.834 19.3159 54.602 17.9719C55.37 16.6039 55.754 15.0799 55.754 13.3999C55.754 11.7199 55.37 10.2079 54.602 8.86394C53.834 7.49594 52.778 6.43994 51.434 5.69594C50.09 4.92794 48.578 4.54394 46.898 4.54394C45.218 4.54394 43.706 4.92794 42.362 5.69594C41.018 6.43994 39.962 7.49594 39.194 8.86394C38.426 10.2079 38.042 11.7199 38.042 13.3999C38.042 15.0799 38.426 16.6039 39.194 17.9719C39.962 19.3159 41.018 20.3719 42.362 21.1399C43.706 21.8839 45.218 22.2559 46.898 22.2559Z" fill="white"/>
<path d="M86.9187 25.9999L81.7707 18.6199C81.5547 18.6439 81.2307 18.6559 80.7987 18.6559H75.1107V25.9999H70.4307V0.799941H80.7987C82.9827 0.799941 84.8787 1.15994 86.4867 1.87994C88.1187 2.59994 89.3667 3.63194 90.2307 4.97594C91.0947 6.31994 91.5267 7.91594 91.5267 9.76394C91.5267 11.6599 91.0587 13.2919 90.1227 14.6599C89.2107 16.0279 87.8907 17.0479 86.1627 17.7199L91.9587 25.9999H86.9187ZM86.8107 9.76394C86.8107 8.15594 86.2827 6.91994 85.2267 6.05594C84.1707 5.19194 82.6227 4.75994 80.5827 4.75994H75.1107V14.8039H80.5827C82.6227 14.8039 84.1707 14.3719 85.2267 13.5079C86.2827 12.6199 86.8107 11.3719 86.8107 9.76394Z" fill="white"/>
<path d="M112.599 26.3599C109.119 26.3599 106.407 25.3879 104.463 23.4439C102.519 21.4759 101.547 18.6679 101.547 15.0199V0.799941H106.227V14.8399C106.227 19.7839 108.363 22.2559 112.635 22.2559C116.883 22.2559 119.007 19.7839 119.007 14.8399V0.799941H123.615V15.0199C123.615 18.6679 122.643 21.4759 120.699 23.4439C118.779 25.3879 116.079 26.3599 112.599 26.3599Z" fill="white"/>
<path d="M142.981 26.3599C141.037 26.3599 139.153 26.0839 137.329 25.5319C135.529 24.9799 134.101 24.2479 133.045 23.3359L134.665 19.6999C135.697 20.5159 136.957 21.1879 138.445 21.7159C139.957 22.2199 141.469 22.4719 142.981 22.4719C144.853 22.4719 146.245 22.1719 147.157 21.5719C148.093 20.9719 148.561 20.1799 148.561 19.1959C148.561 18.4759 148.297 17.8879 147.769 17.4319C147.265 16.9519 146.617 16.5799 145.825 16.3159C145.033 16.0519 143.953 15.7519 142.585 15.4159C140.665 14.9599 139.105 14.5039 137.905 14.0479C136.729 13.5919 135.709 12.8839 134.845 11.9239C134.005 10.9399 133.585 9.61994 133.585 7.96394C133.585 6.57194 133.957 5.31194 134.701 4.18394C135.469 3.03194 136.609 2.11994 138.121 1.44794C139.657 0.775941 141.529 0.439941 143.737 0.439941C145.273 0.439941 146.785 0.631942 148.273 1.01594C149.761 1.39994 151.045 1.95194 152.125 2.67194L150.649 6.30794C149.545 5.65994 148.393 5.16794 147.193 4.83194C145.993 4.49594 144.829 4.32794 143.701 4.32794C141.853 4.32794 140.473 4.63994 139.561 5.26394C138.673 5.88794 138.229 6.71594 138.229 7.74794C138.229 8.46794 138.481 9.05594 138.985 9.51194C139.513 9.96794 140.173 10.3279 140.965 10.5919C141.757 10.8559 142.837 11.1559 144.205 11.4919C146.077 11.9239 147.613 12.3799 148.813 12.8599C150.013 13.3159 151.033 14.0239 151.873 14.9839C152.737 15.9439 153.169 17.2399 153.169 18.8719C153.169 20.2639 152.785 21.5239 152.017 22.6519C151.273 23.7799 150.133 24.6799 148.597 25.3519C147.061 26.0239 145.189 26.3599 142.981 26.3599Z" fill="white"/>
</svg>
