<svg width="20" height="16" viewBox="0 0 20 16" fill="none" xmlns="http://www.w3.org/2000/svg">
<path d="M19.0088 2.60474C18.401 2.85991 17.7336 3.01523 17.0901 3.11507C17.4 3.0707 17.8528 2.54927 18.0316 2.33847C18.3057 2.01674 18.5441 1.65062 18.6752 1.25123C18.6871 1.21794 18.699 1.18467 18.6752 1.16248C18.6394 1.15138 18.6037 1.15138 18.5679 1.17357C17.8409 1.53968 17.0901 1.79485 16.2916 1.98346C16.2201 1.99455 16.1725 1.98346 16.1367 1.95018C16.0652 1.88361 16.0056 1.81704 15.9341 1.76157C15.6004 1.4953 15.2429 1.28451 14.8258 1.12919C14.2895 0.929491 13.7055 0.840741 13.1335 0.874024C12.5734 0.907307 12.0251 1.05153 11.5246 1.29561C11.0241 1.53968 10.5831 1.87251 10.2256 2.283C9.85615 2.70458 9.59394 3.20383 9.45093 3.72527C9.31983 4.2356 9.33175 4.73484 9.41517 5.24518C9.42709 5.33394 9.4152 5.34503 9.33178 5.33394C6.19746 4.90126 3.61133 3.8584 1.50192 1.62844C1.40658 1.52859 1.35892 1.52858 1.28742 1.63953C0.369764 2.92647 0.810686 4.99002 1.96669 6.01069C2.12162 6.14383 2.27658 6.27696 2.44342 6.41009C2.38383 6.42119 1.62109 6.34352 0.929868 6.01069C0.834527 5.95522 0.786863 5.98851 0.786863 6.08835C0.774945 6.23258 0.786849 6.35462 0.810685 6.50994C0.989448 7.80798 1.95479 9.01726 3.28956 9.49431C3.44449 9.56088 3.62323 9.60526 3.79008 9.63854C3.49214 9.70511 3.17038 9.74948 2.31231 9.68291C2.20505 9.66073 2.15739 9.7162 2.20506 9.80495C2.86052 11.458 4.26682 11.9462 5.31556 12.2346C5.45857 12.2568 5.60157 12.2568 5.74458 12.2901C5.73266 12.3012 5.73267 12.3012 5.72076 12.3123C5.37515 12.8115 4.15955 13.1776 3.59943 13.3662C2.57452 13.6991 1.45424 13.8544 0.36974 13.7545C0.190977 13.7324 0.155222 13.7324 0.107552 13.7545C0.0598819 13.7767 0.0956448 13.8211 0.155233 13.8655C0.369749 13.9986 0.59618 14.1207 0.822614 14.2316C1.51383 14.5755 2.22888 14.8418 2.97969 15.0304C6.86482 16.0289 11.2266 15.2966 14.1465 12.6007C16.4346 10.4817 17.2331 7.5639 17.2331 4.6461C17.2331 4.53515 17.3761 4.46858 17.4595 4.41311C18.0554 3.99152 18.5321 3.50338 18.9731 2.93757C19.0684 2.81553 19.0684 2.70459 19.0684 2.66021C19.0684 2.64912 19.0684 2.64911 19.0684 2.64911C19.0923 2.56036 19.0923 2.57145 19.0088 2.60474Z" fill="url(#paint0_linear_1_311)"/>
<defs>
<linearGradient id="paint0_linear_1_311" x1="0.0854645" y1="11.651" x2="19.0823" y2="11.6835" gradientUnits="userSpaceOnUse">
<stop stop-color="#00C0B4"/>
<stop offset="1" stop-color="#29C9F3"/>
</linearGradient>
</defs>
</svg>
