<svg width="30" height="28" viewBox="0 0 30 28" fill="none" xmlns="http://www.w3.org/2000/svg">
<path d="M0 28H9.90677C9.98417 27.8444 9.98417 27.6111 9.98417 27.4556C9.98417 26.6 9.51979 25.9778 8.66843 25.6667C7.81706 25.3556 6.42392 25.0444 4.48901 24.7333C2.70888 24.4222 1.16095 24.1111 0 23.8V28H0ZM28.7916 10.1111C28.1724 10.4222 27.708 10.9667 27.3984 11.5889C27.0888 12.2111 26.8566 12.9889 26.8566 13.7667C26.8566 14.6222 27.0114 15.3222 27.3984 15.9444C27.7854 16.5667 28.2498 17.0333 28.7916 17.4222L28.9464 17.5C29.1785 16.4111 29.3333 15.2444 29.3333 14C29.3333 12.6 29.1785 11.2778 28.7916 10.1111ZM0 0.0777778V4.2C1.16095 4.2 2.08971 3.81111 2.78628 3.03333C3.56025 2.25556 3.86983 1.24444 3.86983 0H0V0.0777778ZM7.0431 0.0777778C7.0431 1.4 6.73351 2.56667 6.11434 3.57778C5.57256 4.66667 4.7212 5.44444 3.63764 6.06667C2.55409 6.61111 1.39314 6.92222 0 6.92222V10.6556C1.54793 10.0333 3.48285 9.72222 5.64996 9.72222C6.8883 9.72222 8.12665 9.8 9.365 10.0333V7.38889H13.3122C15.3245 7.38889 16.9499 7.93333 18.1108 9.1C19.3492 10.2667 19.8909 11.9 19.8909 14C19.8909 16.1 19.2718 17.7333 18.1108 18.9C16.8725 20.0667 15.3245 20.6111 13.3122 20.6111H9.365V14.7778C8.20405 14.4667 6.9657 14.3111 5.57256 14.3111C3.86983 14.3111 2.63149 14.5444 1.78012 15.0889C0.92876 15.5556 0.46438 16.2556 0.46438 17.1111C0.46438 18.0444 0.92876 18.6667 1.85752 19.0556C2.78628 19.4444 4.25682 19.8333 6.19173 20.1444C8.12665 20.4556 9.75198 20.7667 10.9903 21.2333C12.2287 21.6222 13.3122 22.3222 14.241 23.2556C15.1697 24.1889 15.5567 25.5889 15.5567 27.3C15.5567 27.5333 15.5567 27.7667 15.5567 28C17.8786 27.8444 20.0457 27.3 21.9033 26.3667C22.9868 25.8222 23.993 25.2 24.9217 24.4222V20.6889H27.8628C27.9402 20.5333 28.0176 20.4556 28.0176 20.3C27.6306 20.1444 27.321 19.9889 27.0114 19.8333C26.0053 19.2889 25.1539 18.4333 24.6121 17.4222C23.993 16.4111 23.7608 15.1667 23.7608 13.8444C23.7608 12.5222 24.0704 11.2778 24.6121 10.2667C24.9217 9.64445 25.3861 9.17778 25.8505 8.71111H25.5409V4.27778C24.5347 3.26667 23.2964 2.41111 21.9033 1.78889C19.504 0.622222 16.7951 0.0777778 13.6992 0.0777778H7.0431Z" fill="url(#paint0_linear_1_405)"/>
<defs>
<linearGradient id="paint0_linear_1_405" x1="1.11533e-07" y1="20.6957" x2="29.3336" y2="20.736" gradientUnits="userSpaceOnUse">
<stop stop-color="#00C0B4"/>
<stop offset="1" stop-color="#29C9F3"/>
</linearGradient>
</defs>
</svg>
