<svg width="53" height="54" viewBox="0 0 53 54" fill="none" xmlns="http://www.w3.org/2000/svg">
<path d="M47.0449 27.191C47.0449 38.7687 38.0383 48.1355 26.906 48.1355C15.7737 48.1355 6.76712 38.7687 6.76712 27.191C6.76712 15.6134 15.7737 6.24658 26.906 6.24658C38.0383 6.24658 47.0449 15.6425 47.0449 27.191Z" fill="white"/>
<path opacity="0.1" d="M47.0449 27.191C47.0449 38.7687 38.0383 48.1355 26.906 48.1355C15.7737 48.1355 6.76712 38.7687 6.76712 27.191C6.76712 15.6134 15.7737 6.24658 26.906 6.24658C38.0383 6.24658 47.0449 15.6425 47.0449 27.191Z" fill="url(#paint0_linear_1_115)"/>
<path d="M52 27C52 41.3676 40.8215 52.9999 27.0144 52.9999C13.1785 53.03 2 41.3676 2 27C2 12.6324 13.1785 1 26.9856 1C40.7926 1 52 12.6324 52 27Z" stroke="url(#paint1_linear_1_115)" stroke-width="2" stroke-miterlimit="10" stroke-dasharray="7 7"/>
<path d="M48.314 13.0819H44.2476C43.9281 13.0819 43.6667 12.81 43.6667 12.4777V8.24868C43.6667 7.9164 43.9281 7.64453 44.2476 7.64453H48.314C48.6335 7.64453 48.8949 7.9164 48.8949 8.24868V12.4777C48.8949 12.81 48.6335 13.0819 48.314 13.0819Z" fill="white" stroke="#261D53" stroke-width="3"/>
<path d="M6.64728 43.1263H2.58091C2.26141 43.1263 2 42.8545 2 42.5222V38.2932C2 37.9609 2.26141 37.689 2.58091 37.689H6.64728C6.96678 37.689 7.22819 37.9609 7.22819 38.2932V42.5222C7.22819 42.8545 6.96678 43.1263 6.64728 43.1263Z" fill="white" stroke="#261D53" stroke-width="3"/>
<path d="M13.0869 9.37901H7.85868C7.53918 9.37901 7.27777 9.10715 7.27777 8.77486V3.33755C7.27777 3.00526 7.53918 2.7334 7.85868 2.7334H13.0869C13.4064 2.7334 13.6678 3.00526 13.6678 3.33755V8.77486C13.6678 9.10715 13.4064 9.37901 13.0869 9.37901Z" fill="white" stroke="url(#paint2_linear_1_115)" stroke-width="3"/>
<path d="M49.4758 48.0899H44.2476C43.9281 48.0899 43.6667 47.8181 43.6667 47.4858V42.0485C43.6667 41.7162 43.9281 41.4443 44.2476 41.4443H49.4758C49.7953 41.4443 50.0567 41.7162 50.0567 42.0485V47.4858C50.0567 47.8181 49.7953 48.0899 49.4758 48.0899Z" fill="white" stroke="url(#paint3_linear_1_115)" stroke-width="3"/>
<path d="M26.8167 13.4678C31.1772 13.4678 35.5356 13.4678 39.896 13.4678C40.7129 13.4678 41.3815 14.1776 41.4024 15.0259C41.4191 15.7249 40.9595 16.4001 40.3034 16.5798C40.1823 16.6122 40.059 16.6317 39.9336 16.6425C39.8521 16.649 39.8208 16.6707 39.8208 16.7615C39.8229 20.3323 39.8229 23.9031 39.8229 27.4739C39.8229 31.181 39.8229 34.8881 39.8229 38.5974C39.8229 39.3613 39.2609 40.1599 38.5588 40.4044C38.3165 40.4888 38.0678 40.5321 37.8109 40.5321C35.0049 40.5299 32.1968 40.5299 29.3908 40.5299C29.0001 40.5299 28.6115 40.5321 28.2208 40.5299C28.0098 40.5299 27.7987 40.5191 27.5898 40.5191C27.4164 40.5191 27.243 40.5299 27.0695 40.5299C23.3046 40.5299 19.5417 40.5299 15.7767 40.5299C14.7466 40.5299 13.9067 39.7314 13.8252 38.6688C13.8148 38.5281 13.8398 38.3853 13.8398 38.2446C13.8398 38.0975 13.8231 37.9525 13.8231 37.8053C13.821 33.265 13.821 28.7247 13.8231 24.1823C13.8231 24.0048 13.8398 23.8274 13.8398 23.6499C13.8398 23.5179 13.8231 23.3859 13.8231 23.2539C13.8231 21.0898 13.821 18.9257 13.8252 16.7615C13.8252 16.6663 13.7876 16.6512 13.7082 16.6447C13.0814 16.5992 12.6155 16.2898 12.3689 15.686C12.1391 15.1233 12.2018 14.5758 12.5633 14.0845C12.8704 13.6625 13.2924 13.4678 13.8022 13.4678C18.1397 13.4678 22.4793 13.4678 26.8167 13.4678Z" fill="white"/>
<path d="M26.8167 13.4678C31.1772 13.4678 35.5356 13.4678 39.896 13.4678C40.7129 13.4678 41.3815 14.1776 41.4024 15.0259C41.4191 15.7249 40.9595 16.4001 40.3034 16.5798C40.1823 16.6122 40.059 16.6317 39.9336 16.6425C39.8521 16.649 39.8208 16.6707 39.8208 16.7615C39.8229 20.3323 39.8229 23.9031 39.8229 27.4739C39.8229 31.181 39.8229 34.8881 39.8229 38.5974C39.8229 39.3613 39.2609 40.1599 38.5588 40.4044C38.3165 40.4888 38.0678 40.5321 37.8109 40.5321C35.0049 40.5299 32.1968 40.5299 29.3908 40.5299C29.0001 40.5299 28.6115 40.5321 28.2208 40.5299C28.0098 40.5299 27.7987 40.5191 27.5898 40.5191C27.4164 40.5191 27.243 40.5299 27.0695 40.5299C23.3046 40.5299 19.5417 40.5299 15.7767 40.5299C14.7466 40.5299 13.9067 39.7314 13.8252 38.6688C13.8148 38.5281 13.8398 38.3853 13.8398 38.2446C13.8398 38.0975 13.8231 37.9525 13.8231 37.8053C13.821 33.265 13.821 28.7247 13.8231 24.1823C13.8231 24.0048 13.8398 23.8274 13.8398 23.6499C13.8398 23.5179 13.8231 23.3859 13.8231 23.2539C13.8231 21.0898 13.821 18.9257 13.8252 16.7615C13.8252 16.6663 13.7876 16.6512 13.7082 16.6447C13.0814 16.5992 12.6155 16.2898 12.3689 15.686C12.1391 15.1233 12.2018 14.5758 12.5633 14.0845C12.8704 13.6625 13.2924 13.4678 13.8022 13.4678C18.1397 13.4678 22.4793 13.4678 26.8167 13.4678ZM14.7299 27.6708C14.7299 31.2632 14.7299 34.8556 14.7299 38.4481C14.7299 39.1189 15.1833 39.5907 15.8331 39.5907C17.4063 39.5907 18.9817 39.5907 20.555 39.5907C23.0141 39.5907 25.4712 39.5907 27.9304 39.5907C28.1748 39.5907 28.4193 39.608 28.6637 39.6102C28.8392 39.6102 29.0147 39.5929 29.1902 39.5907C29.535 39.5885 29.8797 39.5907 30.2245 39.5907C32.7588 39.5907 35.2932 39.5907 37.8297 39.5907C38.4565 39.5907 38.9161 39.1124 38.9161 38.4632C38.9161 35.8446 38.9161 33.2261 38.9161 30.6075C38.9161 26.0347 38.9161 21.462 38.9161 16.8871C38.9161 16.8286 38.9224 16.7702 38.914 16.7139C38.9098 16.688 38.8764 16.6512 38.8534 16.649C38.7406 16.6382 38.6257 16.6295 38.5108 16.6317C38.2621 16.6339 38.0135 16.6468 37.767 16.6468C32.5959 16.6468 27.4247 16.6468 22.2536 16.6468C22.1784 16.6468 22.1011 16.6317 22.0259 16.6317C21.7208 16.6339 21.4179 16.6468 21.1128 16.6468C19.0298 16.649 16.9488 16.649 14.8657 16.6447C14.7696 16.6447 14.7341 16.6642 14.7341 16.7745C14.7299 20.4059 14.7299 24.0394 14.7299 27.6708ZM26.8105 15.6968C28.2626 15.6968 29.7147 15.6968 31.1667 15.6968C34.0709 15.6968 36.9751 15.6968 39.8793 15.6968C40.2094 15.6968 40.4936 15.4046 40.4936 15.0627C40.4936 14.7056 40.2052 14.407 39.8062 14.407C37.3407 14.4113 34.8753 14.4092 32.412 14.4092C29.6102 14.4092 26.8063 14.4092 24.0045 14.4092C20.6198 14.4092 17.235 14.4092 13.8524 14.4092C13.8001 14.4092 13.7479 14.4113 13.6957 14.4178C13.3697 14.4676 13.1274 14.7749 13.1524 15.1038C13.1775 15.4414 13.4512 15.6968 13.7855 15.6968C18.1272 15.6968 22.4688 15.6968 26.8105 15.6968Z" fill="#281C51"/>
<path d="M29.5525 20.2025C29.4104 20.354 29.2684 20.5055 29.1242 20.657C27.2396 22.609 25.3529 24.5632 23.4683 26.5152C23.2385 26.7532 22.9627 26.7554 22.7329 26.5174C21.8387 25.5933 20.9465 24.6692 20.0544 23.7408C19.9938 23.678 19.9603 23.6694 19.8956 23.7365C19.041 24.6259 18.1844 25.511 17.3299 26.4005C17.2087 26.5282 17.0833 26.6385 16.8995 26.6256C16.7051 26.6104 16.561 26.5087 16.4941 26.3183C16.4294 26.13 16.4649 25.9547 16.6049 25.8119C17.2254 25.1691 17.8459 24.5264 18.4665 23.8836C18.8405 23.4963 19.2082 23.1024 19.5801 22.715C19.7869 22.4986 20.0209 22.4553 20.2278 22.596C20.2591 22.6176 20.2884 22.6458 20.3155 22.6717C21.2181 23.6023 22.1207 24.5329 23.0212 25.4678C23.0839 25.5327 23.1194 25.5284 23.18 25.4678C25.0709 23.5071 26.9638 21.5464 28.8547 19.5857C28.8714 19.5684 28.8839 19.5489 28.9111 19.51C28.8568 19.5056 28.8212 19.4992 28.7857 19.4992C28.2697 19.4992 27.7557 19.4992 27.2396 19.497C27.0035 19.4948 26.8405 19.391 26.7737 19.2027C26.6504 18.8672 26.8677 18.5448 27.2271 18.5448C27.9124 18.5426 28.5998 18.5448 29.2851 18.5448C29.5212 18.5448 29.7594 18.5491 29.9954 18.5426C30.3068 18.5361 30.5136 18.7569 30.5094 19.0685C30.4969 20.0272 30.499 20.9881 30.5094 21.9468C30.5115 22.2324 30.2963 22.4597 30.0519 22.451C29.7802 22.4423 29.5964 22.2476 29.5964 21.9446C29.5964 21.4187 29.5964 20.8907 29.5964 20.3648C29.5964 20.3172 29.5901 20.2674 29.588 20.2198C29.5755 20.2111 29.563 20.2068 29.5525 20.2025Z" fill="url(#paint4_linear_1_115)"/>
<path d="M23.7434 30.4365C23.7434 29.9496 23.7434 29.4627 23.7434 28.9758C23.7434 28.6641 23.9231 28.478 24.2219 28.478C24.9949 28.478 25.768 28.478 26.541 28.478C26.8419 28.478 27.0216 28.662 27.0216 28.9758C27.0237 29.9453 27.0216 30.9148 27.0195 31.8865C27.0195 32.2111 26.8398 32.3994 26.5285 32.4016C25.7596 32.4037 24.9908 32.4037 24.2198 32.3994C23.9189 32.3994 23.7413 32.209 23.7413 31.8973C23.7434 31.4104 23.7434 30.9235 23.7434 30.4365Z" fill="white"/>
<path d="M29.1946 29.427C29.1946 28.7102 29.1946 27.9934 29.1946 27.2767C29.1946 26.8179 29.3388 26.5439 29.5784 26.5439C30.1984 26.5439 30.8184 26.5439 31.4384 26.5439C31.6797 26.5439 31.8238 26.8147 31.8238 27.2767C31.8255 28.7039 31.8238 30.131 31.8222 31.5614C31.8222 32.0393 31.6781 32.3164 31.4284 32.3196C30.8117 32.3228 30.195 32.3228 29.5767 32.3164C29.3354 32.3164 29.193 32.0361 29.193 31.5774C29.1946 30.8606 29.1946 30.1438 29.1946 29.427Z" fill="white"/>
<path d="M34.1654 27.1418C34.1654 25.9346 34.1654 24.7274 34.1654 23.5202C34.1654 22.7476 34.3095 22.2861 34.5491 22.2861C35.1691 22.2861 35.7891 22.2861 36.4092 22.2861C36.6505 22.2861 36.7946 22.7422 36.7946 23.5202C36.7963 25.9239 36.7946 28.3276 36.7929 30.7366C36.7929 31.5414 36.6488 32.0082 36.3991 32.0136C35.7824 32.019 35.1658 32.019 34.5474 32.0082C34.3061 32.0082 34.1637 31.5361 34.1637 30.7635C34.1654 29.5562 34.1654 28.349 34.1654 27.1418Z" fill="white"/>
<path d="M33.8976 26.9283C33.8976 25.2663 33.8976 23.6042 33.8976 21.9422C33.8976 21.6609 34.0856 21.4683 34.3593 21.4683C35.1387 21.4683 35.918 21.4683 36.6994 21.4683C36.9961 21.4683 37.1758 21.6609 37.1758 21.9703C37.1758 23.258 37.1758 24.5456 37.1758 25.8311C37.1758 27.7355 37.1758 29.6399 37.1737 31.5422C37.1737 31.7131 37.159 31.8819 37.1423 32.0529C37.1298 32.1828 37.0525 32.2585 36.9418 32.3278C36.7558 32.4424 36.5615 32.3602 36.3755 32.3948C36.3129 32.4057 36.246 32.3992 36.1812 32.3992C35.59 32.3992 34.9966 32.3992 34.4053 32.3992C34.1817 32.3992 34.0104 32.3148 33.9268 32.0919C33.9039 32.0313 33.8976 31.9577 33.8976 31.8906C33.8976 30.2394 33.8976 28.5838 33.8976 26.9283ZM36.2606 26.9348C36.2606 25.4675 36.2606 24.0003 36.2627 22.5308C36.2627 22.4313 36.2376 22.3988 36.1415 22.401C35.7383 22.4053 35.333 22.4053 34.9297 22.401C34.8441 22.401 34.8085 22.4183 34.8085 22.52C34.8106 25.4545 34.8106 28.3912 34.8085 31.3258C34.8085 31.4296 34.8441 31.4535 34.936 31.4513C35.3267 31.447 35.7153 31.4491 36.106 31.4491C36.2627 31.4491 36.2627 31.4491 36.2627 31.2825C36.2606 29.8347 36.2606 28.3847 36.2606 26.9348Z" fill="#281C51"/>
<path d="M33.8976 26.9283C33.8976 25.2663 33.8976 23.6042 33.8976 21.9422C33.8976 21.6609 34.0856 21.4683 34.3593 21.4683C35.1387 21.4683 35.918 21.4683 36.6994 21.4683C36.9961 21.4683 37.1758 21.6609 37.1758 21.9703C37.1758 23.258 37.1758 24.5456 37.1758 25.8311C37.1758 27.7355 37.1758 29.6399 37.1737 31.5422C37.1737 31.7131 37.159 31.8819 37.1423 32.0529C37.1298 32.1828 37.0525 32.2585 36.9418 32.3278C36.7558 32.4424 36.5615 32.3602 36.3755 32.3948C36.3129 32.4057 36.246 32.3992 36.1812 32.3992C35.59 32.3992 34.9966 32.3992 34.4053 32.3992C34.1817 32.3992 34.0104 32.3148 33.9268 32.0919C33.9039 32.0313 33.8976 31.9577 33.8976 31.8906C33.8976 30.2394 33.8976 28.5838 33.8976 26.9283ZM36.2606 26.9348C36.2606 25.4675 36.2606 24.0003 36.2627 22.5308C36.2627 22.4313 36.2376 22.3988 36.1415 22.401C35.7383 22.4053 35.333 22.4053 34.9297 22.401C34.8441 22.401 34.8085 22.4183 34.8085 22.52C34.8106 25.4545 34.8106 28.3912 34.8085 31.3258C34.8085 31.4296 34.8441 31.4535 34.936 31.4513C35.3267 31.447 35.7153 31.4491 36.106 31.4491C36.2627 31.4491 36.2627 31.4491 36.2627 31.2825C36.2606 29.8347 36.2606 28.3847 36.2606 26.9348Z" fill="black" fill-opacity="0.2"/>
<path d="M26.8145 37.2154C23.5175 37.2154 20.2206 37.2154 16.9215 37.2154C16.6541 37.2154 16.4639 37.0185 16.466 36.748C16.466 36.4775 16.6582 36.2827 16.9236 36.2827C21.8899 36.2827 26.8542 36.2827 31.8206 36.2827C33.4545 36.2827 35.0862 36.2827 36.7201 36.2827C36.9583 36.2827 37.1338 36.4364 37.1672 36.6658C37.2048 36.9146 37.0857 37.1267 36.8622 37.2003C36.8162 37.2154 36.7661 37.2176 36.718 37.2176C34.7895 37.2176 32.859 37.2198 30.9305 37.2198C29.5578 37.2154 28.1872 37.2154 26.8145 37.2154Z" fill="url(#paint5_linear_1_115)"/>
<path d="M26.8232 34.6435C23.5262 34.6435 20.2292 34.6435 16.9322 34.6435C16.6314 34.6435 16.4308 34.4054 16.4726 34.096C16.5018 33.8796 16.6752 33.7064 16.8946 33.7043C17.3752 33.6978 17.8557 33.7021 18.3363 33.7021C18.5577 33.7021 18.7792 33.7021 19.0007 33.7021C19.8803 33.7021 20.7578 33.7021 21.6374 33.7021C24.4058 33.7021 27.1721 33.7021 29.9405 33.7021C31.5493 33.7021 33.158 33.7021 34.7668 33.7021C35.028 33.7021 35.2871 33.7064 35.5483 33.7064C35.9306 33.7064 36.3109 33.7064 36.6932 33.7021C36.8792 33.6999 37.0317 33.7713 37.1194 33.9402C37.2135 34.1198 37.1967 34.3037 37.0797 34.4704C36.992 34.5937 36.8645 34.6457 36.7162 34.6457C35.8533 34.6457 34.9904 34.6457 34.1254 34.6457C31.6913 34.6435 29.2572 34.6435 26.8232 34.6435Z" fill="url(#paint6_linear_1_115)"/>
<path d="M28.8231 29.0388C28.8231 28.0801 28.8231 27.1214 28.8231 26.1627C28.8231 25.864 29.0007 25.6758 29.289 25.6758C30.0641 25.6758 30.8414 25.6736 31.6165 25.6758C31.9216 25.6758 32.1033 25.864 32.1033 26.1822C32.1033 28.0779 32.1033 29.9737 32.1033 31.8716C32.1033 32.2244 31.9299 32.4061 31.5894 32.4061C30.8665 32.4083 30.1414 32.4061 29.4185 32.4061C29.36 32.4061 29.2994 32.4061 29.2409 32.4018C28.986 32.378 28.8231 32.1941 28.8231 31.93C28.821 30.9627 28.8231 29.9997 28.8231 29.0388ZM29.7319 29.0323C29.7319 29.7962 29.734 30.5602 29.7298 31.3241C29.7298 31.4215 29.757 31.4539 29.8552 31.4539C30.2626 31.4496 30.6701 31.4496 31.0775 31.4539C31.1715 31.4539 31.1945 31.4193 31.1945 31.3284C31.1924 29.8006 31.1924 28.2727 31.1945 26.7427C31.1945 26.6431 31.1652 26.6128 31.0691 26.6128C30.6701 26.6172 30.2689 26.615 29.8677 26.615C29.7319 26.615 29.7319 26.615 29.7319 26.76C29.7319 27.5196 29.7319 28.2749 29.7319 29.0323Z" fill="#281C51"/>
<path d="M28.8231 29.0388C28.8231 28.0801 28.8231 27.1214 28.8231 26.1627C28.8231 25.864 29.0007 25.6758 29.289 25.6758C30.0641 25.6758 30.8414 25.6736 31.6165 25.6758C31.9216 25.6758 32.1033 25.864 32.1033 26.1822C32.1033 28.0779 32.1033 29.9737 32.1033 31.8716C32.1033 32.2244 31.9299 32.4061 31.5894 32.4061C30.8665 32.4083 30.1414 32.4061 29.4185 32.4061C29.36 32.4061 29.2994 32.4061 29.2409 32.4018C28.986 32.378 28.8231 32.1941 28.8231 31.93C28.821 30.9627 28.8231 29.9997 28.8231 29.0388ZM29.7319 29.0323C29.7319 29.7962 29.734 30.5602 29.7298 31.3241C29.7298 31.4215 29.757 31.4539 29.8552 31.4539C30.2626 31.4496 30.6701 31.4496 31.0775 31.4539C31.1715 31.4539 31.1945 31.4193 31.1945 31.3284C31.1924 29.8006 31.1924 28.2727 31.1945 26.7427C31.1945 26.6431 31.1652 26.6128 31.0691 26.6128C30.6701 26.6172 30.2689 26.615 29.8677 26.615C29.7319 26.615 29.7319 26.615 29.7319 26.76C29.7319 27.5196 29.7319 28.2749 29.7319 29.0323Z" fill="black" fill-opacity="0.2"/>
<path d="M23.7436 30.4365C23.7436 29.9496 23.7436 29.4627 23.7436 28.9758C23.7436 28.6641 23.9233 28.478 24.2221 28.478C24.9951 28.478 25.7682 28.478 26.5412 28.478C26.8421 28.478 27.0218 28.662 27.0218 28.9758C27.0239 29.9453 27.0218 30.9148 27.0197 31.8865C27.0197 32.2111 26.84 32.3994 26.5287 32.4016C25.7598 32.4037 24.9909 32.4037 24.22 32.3994C23.9191 32.3994 23.7415 32.209 23.7415 31.8973C23.7436 31.4104 23.7436 30.9235 23.7436 30.4365ZM26.1046 30.4257C26.1046 30.1292 26.1004 29.8349 26.1066 29.5384C26.1087 29.4432 26.0795 29.4129 25.9896 29.4129C25.578 29.4173 25.1685 29.4151 24.7569 29.4129C24.6734 29.4129 24.6504 29.4432 24.6504 29.5276C24.6525 30.1336 24.6525 30.7395 24.6504 31.3455C24.6504 31.4234 24.6713 31.4537 24.7507 31.4537C25.1685 31.4515 25.5864 31.4494 26.0043 31.4537C26.0837 31.4537 26.1046 31.4234 26.1046 31.3455C26.1025 31.0382 26.1046 30.733 26.1046 30.4257Z" fill="#281C51"/>
<path d="M23.7436 30.4365C23.7436 29.9496 23.7436 29.4627 23.7436 28.9758C23.7436 28.6641 23.9233 28.478 24.2221 28.478C24.9951 28.478 25.7682 28.478 26.5412 28.478C26.8421 28.478 27.0218 28.662 27.0218 28.9758C27.0239 29.9453 27.0218 30.9148 27.0197 31.8865C27.0197 32.2111 26.84 32.3994 26.5287 32.4016C25.7598 32.4037 24.9909 32.4037 24.22 32.3994C23.9191 32.3994 23.7415 32.209 23.7415 31.8973C23.7436 31.4104 23.7436 30.9235 23.7436 30.4365ZM26.1046 30.4257C26.1046 30.1292 26.1004 29.8349 26.1066 29.5384C26.1087 29.4432 26.0795 29.4129 25.9896 29.4129C25.578 29.4173 25.1685 29.4151 24.7569 29.4129C24.6734 29.4129 24.6504 29.4432 24.6504 29.5276C24.6525 30.1336 24.6525 30.7395 24.6504 31.3455C24.6504 31.4234 24.6713 31.4537 24.7507 31.4537C25.1685 31.4515 25.5864 31.4494 26.0043 31.4537C26.0837 31.4537 26.1046 31.4234 26.1046 31.3455C26.1025 31.0382 26.1046 30.733 26.1046 30.4257Z" fill="black" fill-opacity="0.2"/>
<path d="M19.2386 30.6614C19.9845 30.6614 20.7283 30.6657 21.4742 30.6592C21.6936 30.6571 21.8565 30.735 21.9631 30.9362C21.9673 30.9427 21.9693 30.9492 21.9714 30.9557C22.0508 31.1829 21.961 31.54 21.6664 31.592C21.5243 31.6179 21.3739 31.6006 21.2276 31.6028C21.1524 31.6049 21.0772 31.6049 21.0041 31.6049C19.6564 31.6049 18.3088 31.6006 16.9633 31.6093C16.6666 31.6114 16.4723 31.3864 16.4702 31.1397C16.4681 30.8626 16.6729 30.6614 16.9654 30.6592C17.7196 30.6592 18.4781 30.6614 19.2386 30.6614Z" fill="url(#paint7_linear_1_115)"/>
<defs>
<linearGradient id="paint0_linear_1_115" x1="6.7775" y1="27.2018" x2="47.0553" y2="27.2018" gradientUnits="userSpaceOnUse">
<stop stop-color="#092054"/>
<stop offset="0.1943" stop-color="#213E67"/>
<stop offset="0.4694" stop-color="#456F84"/>
<stop offset="0.7053" stop-color="#629A9C"/>
<stop offset="0.8897" stop-color="#76B7AE"/>
<stop offset="1" stop-color="#7EC3B4"/>
</linearGradient>
<linearGradient id="paint1_linear_1_115" x1="1.71115" y1="27.0111" x2="52.2814" y2="27.0111" gradientUnits="userSpaceOnUse">
<stop stop-color="#00C0B4"/>
<stop offset="1" stop-color="#29C9F3"/>
</linearGradient>
<linearGradient id="paint2_linear_1_115" x1="6.97294" y1="6.0492" x2="13.9439" y2="6.0492" gradientUnits="userSpaceOnUse">
<stop stop-color="#00C0B4"/>
<stop offset="1" stop-color="#29C9F3"/>
</linearGradient>
<linearGradient id="paint3_linear_1_115" x1="43.3763" y1="44.777" x2="50.3472" y2="44.777" gradientUnits="userSpaceOnUse">
<stop stop-color="#00C0B4"/>
<stop offset="1" stop-color="#29C9F3"/>
</linearGradient>
<linearGradient id="paint4_linear_1_115" x1="17.1132" y1="26.6948" x2="31.1062" y2="22.0739" gradientUnits="userSpaceOnUse">
<stop stop-color="#0491B2"/>
<stop offset="1" stop-color="#29F4F4"/>
</linearGradient>
<linearGradient id="paint5_linear_1_115" x1="17.4247" y1="37.2198" x2="18.6327" y2="32.1033" gradientUnits="userSpaceOnUse">
<stop stop-color="#0491B2"/>
<stop offset="1" stop-color="#29F4F4"/>
</linearGradient>
<linearGradient id="paint6_linear_1_115" x1="17.426" y1="34.6457" x2="18.6531" y2="29.4904" gradientUnits="userSpaceOnUse">
<stop stop-color="#0491B2"/>
<stop offset="1" stop-color="#29F4F4"/>
</linearGradient>
<linearGradient id="paint7_linear_1_115" x1="16.7261" y1="31.6093" x2="19.4484" y2="28.5732" gradientUnits="userSpaceOnUse">
<stop stop-color="#0491B2"/>
<stop offset="1" stop-color="#29F4F4"/>
</linearGradient>
</defs>
</svg>
