<svg width="52" height="52" viewBox="0 0 52 52" fill="none" xmlns="http://www.w3.org/2000/svg">
<path d="M45.1934 25.7205C45.1934 35.4501 37.3217 43.3218 27.5921 43.3218C17.8625 43.3218 9.99077 35.4501 9.99077 25.7205C9.99077 15.9909 17.8625 8.11914 27.5921 8.11914C37.3217 8.11914 45.1934 15.9909 45.1934 25.7205Z" fill="white"/>
<path opacity="0.1" d="M46.5357 26C46.5357 36.3646 37.9506 44.75 27.3393 44.75C16.7279 44.75 8.14285 36.3646 8.14285 26C8.14285 15.6354 16.7279 7.25 27.3393 7.25C37.9506 7.25 46.5357 15.6354 46.5357 26Z" fill="url(#paint0_linear_1_98)"/>
<path d="M35.5557 31.4996C34.9268 31.3424 34.2716 31.1852 33.6427 31.028C33.4331 30.9755 33.3283 30.8707 33.2496 30.6611C33.1186 30.2942 32.9876 29.9274 32.8042 29.5605C32.6731 29.3246 32.6731 29.1412 32.8304 28.9054C33.1972 28.3289 33.5379 27.7261 33.9048 27.1234C33.4331 26.6517 32.9614 26.1801 32.4897 25.7084C31.887 26.0752 31.2843 26.4421 30.6554 26.809C30.4719 26.9138 30.3147 26.9138 30.1051 26.8352C29.712 26.6517 29.3189 26.4945 28.9258 26.3635C28.7424 26.2849 28.6114 26.1801 28.5852 25.9704C28.5066 25.656 28.4279 25.3415 28.3493 25.0532C28.2445 24.6602 28.1397 24.2671 28.0611 23.874C27.3798 23.874 26.7508 23.874 26.0957 23.874C26.0695 23.9264 26.0695 23.9788 26.0433 24.005C25.8861 24.6602 25.7288 25.2891 25.5716 25.9442C25.5192 26.1538 25.4144 26.2849 25.2047 26.3635C24.8117 26.5207 24.4186 26.6779 24.0255 26.8614C23.8421 26.94 23.6849 26.94 23.5276 26.8352C23.1346 26.5993 22.7415 26.3635 22.3222 26.1276C22.0864 25.9966 21.8767 25.8656 21.6933 25.7346C21.2216 26.2063 20.7499 26.6779 20.2782 27.1496C20.6451 27.7523 21.012 28.3813 21.3788 28.984C21.4837 29.1412 21.4837 29.2984 21.405 29.4819C21.2216 29.8749 21.0644 30.268 20.9071 30.6611C20.8285 30.8707 20.7237 30.9755 20.5141 31.028C20.0948 31.1328 19.7017 31.2376 19.2824 31.3424C18.9942 31.421 18.7059 31.4996 18.4177 31.5783C18.4177 32.2596 18.4177 32.8885 18.4177 33.5436C19.1252 33.7271 19.8065 33.8843 20.5141 34.0677C20.7237 34.1201 20.8547 34.225 20.9071 34.4346C21.0382 34.8015 21.1954 35.1945 21.3788 35.5614C21.4837 35.7972 21.4837 35.9545 21.3526 36.1641C20.9858 36.7668 20.6189 37.3695 20.2782 37.946C20.7499 38.4177 21.2216 38.8894 21.6933 39.3611C22.296 38.9942 22.8987 38.6274 23.5276 38.2605C23.6849 38.1819 23.8159 38.1557 23.9731 38.2343C24.3924 38.4177 24.8379 38.6012 25.2572 38.7584C25.4144 38.8108 25.5192 38.9156 25.5454 39.0729C25.5978 39.3087 25.6502 39.5183 25.7026 39.7542C25.8337 40.2521 25.9385 40.7238 26.0695 41.2217C26.7508 41.2217 27.3798 41.2217 28.0349 41.2217C28.2183 40.5403 28.3755 39.859 28.559 39.1777C28.6114 38.9418 28.7424 38.8108 28.952 38.7322C29.3189 38.6012 29.6858 38.4439 30.0526 38.2867C30.2885 38.1819 30.4457 38.1819 30.6554 38.3129C31.2581 38.6798 31.8608 39.0467 32.4373 39.3873C32.909 38.9156 33.3807 38.4439 33.8524 37.9722C33.8262 37.9198 33.7999 37.8674 33.7737 37.815C33.4331 37.2385 33.0924 36.662 32.7518 36.1117C32.6731 35.9545 32.6469 35.8235 32.7255 35.6662C32.909 35.2469 33.0924 34.8015 33.2496 34.3822C33.3021 34.225 33.4069 34.1463 33.5641 34.0939C33.8524 34.0153 34.1144 33.9629 34.4027 33.8843C34.8481 33.7795 35.2936 33.6747 35.7391 33.5436C35.7391 32.8885 35.7391 32.2334 35.7391 31.5783C35.6605 31.5258 35.6081 31.5258 35.5557 31.4996ZM27.0653 35.64C25.3358 35.64 23.9469 34.2512 23.9469 32.5216C23.9469 30.7921 25.3358 29.4033 27.0653 29.4033C28.7948 29.4033 30.1837 30.7921 30.1837 32.5216C30.1837 34.2512 28.7686 35.64 27.0653 35.64Z" fill="white" stroke="url(#paint1_linear_1_98)" stroke-width="2" stroke-miterlimit="10"/>
<path d="M40.6395 25.1841C40.6395 23.8476 39.5651 22.747 38.2024 22.747C37.8094 22.747 37.4425 22.8519 37.1018 23.0091C36.1584 21.3582 34.3765 20.2576 32.3587 20.2576C31.8084 20.2576 31.2581 20.3362 30.7602 20.4934C30.7602 20.4148 30.7602 20.3362 30.7602 20.2576C30.7602 18.135 29.0569 16.4317 26.9343 16.4317C25.2572 16.4317 23.8683 17.5061 23.318 18.9735C22.5843 18.5805 21.7458 18.3708 20.881 18.3708C17.9722 18.3708 15.6138 20.7293 15.6138 23.638C15.6138 24.0311 15.6662 24.3979 15.7448 24.7648C15.6138 24.7386 15.4566 24.7386 15.3256 24.7386C13.1243 24.7386 11.3162 26.5205 11.3162 28.748C11.3162 30.0844 11.9713 31.2374 12.9671 31.9712H17.684H40.5084V25.9964C40.5871 25.7344 40.6395 25.4723 40.6395 25.1841Z" fill="white" stroke="url(#paint2_linear_1_98)" stroke-width="2" stroke-miterlimit="10"/>
<path d="M49.3408 17.2388C54.1853 29.6281 48.0601 43.6043 35.6705 48.4487C23.2809 53.293 9.30432 47.168 4.45985 34.7787C-0.412455 22.3615 5.71273 8.3853 18.1302 3.54095C30.5198 -1.27556 44.4963 4.82164 49.3408 17.2388Z" stroke="url(#paint3_linear_1_98)" stroke-width="2" stroke-miterlimit="10" stroke-dasharray="7 7"/>
<path d="M39.6075 7.35976C41.0768 6.78593 41.8027 5.12966 41.2289 3.66037C40.6551 2.19109 38.9988 1.46518 37.5295 2.03902C36.0602 2.61285 35.3343 4.26912 35.9082 5.73841C36.482 7.20769 38.1383 7.9336 39.6075 7.35976Z" fill="white" stroke="url(#paint4_linear_1_98)" stroke-width="2" stroke-miterlimit="10"/>
<path d="M16.3225 49.9604C17.7918 49.3866 18.5177 47.7303 17.9439 46.2611C17.37 44.7918 15.7137 44.0659 14.2445 44.6397C12.7752 45.2135 12.0493 46.8698 12.6231 48.3391C13.1969 49.8084 14.8532 50.5343 16.3225 49.9604Z" fill="white" stroke="url(#paint5_linear_1_98)" stroke-width="2" stroke-miterlimit="10"/>
<path d="M4.5538 21.9095C5.65577 21.4792 6.2002 20.237 5.76982 19.135C5.33945 18.033 4.09724 17.4886 2.99528 17.919C1.89332 18.3494 1.34889 19.5916 1.77926 20.6935C2.20964 21.7955 3.45184 22.3399 4.5538 21.9095Z" fill="white" stroke="url(#paint6_linear_1_98)" stroke-width="2" stroke-miterlimit="10"/>
<path d="M47.6841 40.6966C48.786 40.2662 49.3304 39.024 48.9001 37.922C48.4697 36.8201 47.2275 36.2757 46.1255 36.706C45.0236 37.1364 44.4791 38.3786 44.9095 39.4806C45.3399 40.5825 46.5821 41.127 47.6841 40.6966Z" fill="white" stroke="url(#paint7_linear_1_98)" stroke-width="2" stroke-miterlimit="10"/>
<path d="M44.7039 33.1352C44.7269 32.859 44.75 32.5828 44.75 32.2814C44.75 28.3138 41.9594 25.0995 38.5 25.0995C35.0637 25.0995 32.25 28.3138 32.25 32.2814C32.25 32.5828 32.2731 32.859 32.2961 33.1352H44.7039Z" fill="white" stroke="url(#paint8_linear_1_98)" stroke-width="2" stroke-miterlimit="10"/>
<path d="M38.5308 25.7889C40.7885 25.7889 42.6188 23.8413 42.6188 21.4389C42.6188 19.0364 40.7885 17.0889 38.5308 17.0889C36.2731 17.0889 34.4429 19.0364 34.4429 21.4389C34.4429 23.8413 36.2731 25.7889 38.5308 25.7889Z" fill="white" stroke="url(#paint9_linear_1_98)" stroke-width="2" stroke-miterlimit="10"/>
<path d="M18.1819 26.4951C18.3654 26.3903 18.6012 26.3379 18.8632 26.3379C19.2563 26.3379 19.597 26.4951 19.8852 26.8096L20.488 26.2593C20.3045 26.0234 20.0687 25.84 19.7804 25.7352C19.4922 25.6042 19.1777 25.5518 18.837 25.5518C18.4178 25.5518 18.0509 25.6304 17.7102 25.8138C17.3696 25.9972 17.1075 26.2331 16.9241 26.5475C16.7407 26.862 16.6358 27.2289 16.6358 27.6219C16.6358 28.015 16.7407 28.3819 16.9241 28.6963C17.1075 29.0108 17.3696 29.2466 17.7102 29.4301C18.0509 29.6135 18.4178 29.6921 18.837 29.6921C19.1777 29.6921 19.4922 29.6397 19.7804 29.5087C20.0687 29.3777 20.3045 29.1942 20.488 28.9846L19.8852 28.4343C19.6232 28.7488 19.2825 28.906 18.8632 28.906C18.6012 28.906 18.3916 28.8536 18.1819 28.7488C17.9985 28.6439 17.8413 28.4867 17.7102 28.2771C17.6054 28.0936 17.553 27.8578 17.553 27.5957C17.553 27.3337 17.6054 27.1241 17.7102 26.9144C17.8151 26.7572 17.9723 26.6 18.1819 26.4951Z" fill="#2C174B"/>
<path d="M24.8904 27.8581C25.0476 27.6485 25.1 27.3864 25.1 27.072C25.1 26.7837 25.0214 26.5217 24.8904 26.2858C24.7593 26.0762 24.5497 25.8927 24.2876 25.7879C24.0256 25.6569 23.7111 25.6045 23.3705 25.6045H21.6147V29.64H22.5581V28.5132H23.3705H23.4229L24.209 29.64H25.2048L24.2876 28.3298C24.5497 28.225 24.7593 28.0678 24.8904 27.8581ZM23.947 27.5961C23.7898 27.7271 23.5801 27.7795 23.3181 27.7795H22.5581V26.3644H23.3181C23.6063 26.3644 23.816 26.4168 23.947 26.5479C24.1042 26.6789 24.1566 26.8361 24.1566 27.072C24.1566 27.3078 24.078 27.465 23.947 27.5961Z" fill="#2C174B"/>
<path d="M30.9174 25.6045H30.1313L28.6638 28.1202L27.1439 25.6045H26.384V29.64H27.2487V27.2816L28.428 29.2208H28.8472L30.0265 27.2292L30.0527 29.64H30.9174V25.6045Z" fill="#2C174B"/>
<defs>
<linearGradient id="paint0_linear_1_98" x1="8.15466" y1="25.9874" x2="46.5475" y2="25.9874" gradientUnits="userSpaceOnUse">
<stop stop-color="#092054"/>
<stop offset="0.1943" stop-color="#213E67"/>
<stop offset="0.4694" stop-color="#456F84"/>
<stop offset="0.7053" stop-color="#629A9C"/>
<stop offset="0.8897" stop-color="#76B7AE"/>
<stop offset="1" stop-color="#7EC3B4"/>
</linearGradient>
<linearGradient id="paint1_linear_1_98" x1="18.0015" y1="32.5305" x2="36.12" y2="32.5305" gradientUnits="userSpaceOnUse">
<stop stop-color="#172E65"/>
<stop offset="1" stop-color="#311145"/>
</linearGradient>
<linearGradient id="paint2_linear_1_98" x1="11.0581" y1="24.2086" x2="40.9039" y2="24.2086" gradientUnits="userSpaceOnUse">
<stop stop-color="#00C0B4"/>
<stop offset="1" stop-color="#29C9F3"/>
</linearGradient>
<linearGradient id="paint3_linear_1_98" x1="4.18236" y1="34.8637" x2="49.5869" y2="17.1304" gradientUnits="userSpaceOnUse">
<stop stop-color="#00C0B4"/>
<stop offset="1" stop-color="#29C9F3"/>
</linearGradient>
<linearGradient id="paint4_linear_1_98" x1="36.2086" y1="6.87313" x2="40.9129" y2="2.53719" gradientUnits="userSpaceOnUse">
<stop stop-color="#00C0B4"/>
<stop offset="1" stop-color="#29C9F3"/>
</linearGradient>
<linearGradient id="paint5_linear_1_98" x1="12.9355" y1="49.4791" x2="17.6398" y2="45.1432" gradientUnits="userSpaceOnUse">
<stop stop-color="#00C0B4"/>
<stop offset="1" stop-color="#29C9F3"/>
</linearGradient>
<linearGradient id="paint6_linear_1_98" x1="1.96046" y1="21.5757" x2="5.58321" y2="18.2367" gradientUnits="userSpaceOnUse">
<stop stop-color="#172E65"/>
<stop offset="1" stop-color="#311145"/>
</linearGradient>
<linearGradient id="paint7_linear_1_98" x1="45.1" y1="40.3762" x2="48.7228" y2="37.0372" gradientUnits="userSpaceOnUse">
<stop stop-color="#172E65"/>
<stop offset="1" stop-color="#311145"/>
</linearGradient>
<linearGradient id="paint8_linear_1_98" x1="31.9238" y1="29.1311" x2="45.1007" y2="29.1311" gradientUnits="userSpaceOnUse">
<stop stop-color="#00C0B4"/>
<stop offset="1" stop-color="#29C9F3"/>
</linearGradient>
<linearGradient id="paint9_linear_1_98" x1="34.066" y1="21.4492" x2="43.0055" y2="21.4492" gradientUnits="userSpaceOnUse">
<stop stop-color="#00C0B4"/>
<stop offset="1" stop-color="#29C9F3"/>
</linearGradient>
</defs>
</svg>
