<svg width="52" height="52" viewBox="0 0 52 52" fill="none" xmlns="http://www.w3.org/2000/svg">
<path d="M46.2777 25.8615C46.2777 36.9939 37.2712 46.0004 26.1388 46.0004C15.0065 46.0004 5.99994 36.9939 5.99994 25.8615C5.99994 14.7292 15.0065 5.72266 26.1388 5.72266C37.2712 5.72266 46.2777 14.7572 46.2777 25.8615Z" fill="white"/>
<path opacity="0.1" d="M46.2777 25.8615C46.2777 36.9939 37.2712 46.0004 26.1388 46.0004C15.0065 46.0004 5.99994 36.9939 5.99994 25.8615C5.99994 14.7292 15.0065 5.72266 26.1388 5.72266C37.2712 5.72266 46.2777 14.7572 46.2777 25.8615Z" fill="url(#paint0_linear_1_192)"/>
<path d="M15.9444 18.8887H19" stroke="url(#paint1_linear_1_192)" stroke-width="2" stroke-miterlimit="10"/>
<path d="M13.4722 25.4443H19.3889" stroke="url(#paint2_linear_1_192)" stroke-width="1.5" stroke-miterlimit="10"/>
<path d="M18.9999 15.3057V18.889L21.1111 21.0001" stroke="url(#paint3_linear_1_192)" stroke-width="1.5" stroke-miterlimit="10"/>
<path d="M18.8056 15.3052C19.5726 15.3052 20.1945 14.6834 20.1945 13.9163C20.1945 13.1492 19.5726 12.5274 18.8056 12.5274C18.0385 12.5274 17.4167 13.1492 17.4167 13.9163C17.4167 14.6834 18.0385 15.3052 18.8056 15.3052Z" stroke="url(#paint4_linear_1_192)" stroke-width="1.5" stroke-miterlimit="10"/>
<path d="M12.1111 26.8334C12.8782 26.8334 13.5 26.2116 13.5 25.4446C13.5 24.6775 12.8782 24.0557 12.1111 24.0557C11.3441 24.0557 10.7222 24.6775 10.7222 25.4446C10.7222 26.2116 11.3441 26.8334 12.1111 26.8334Z" stroke="url(#paint5_linear_1_192)" stroke-width="1.5" stroke-miterlimit="10"/>
<path d="M14.25 20.5832C15.1859 20.5832 15.9445 19.8246 15.9445 18.8888C15.9445 17.953 15.1859 17.1943 14.25 17.1943C13.3142 17.1943 12.5556 17.953 12.5556 18.8888C12.5556 19.8246 13.3142 20.5832 14.25 20.5832Z" stroke="url(#paint6_linear_1_192)" stroke-width="1.5" stroke-miterlimit="10"/>
<path d="M26.1389 13.2773V18.6662" stroke="url(#paint7_linear_1_192)" stroke-width="3" stroke-miterlimit="10"/>
<path d="M36.3334 18.8887H33.2778" stroke="url(#paint8_linear_1_192)" stroke-width="1.5" stroke-miterlimit="10"/>
<path d="M38.8055 25.4443H32.8888" stroke="url(#paint9_linear_1_192)" stroke-width="1.5" stroke-miterlimit="10"/>
<path d="M33.2778 15.3057V18.889L31.1667 21.0001" stroke="url(#paint10_linear_1_192)" stroke-width="1.5" stroke-miterlimit="10"/>
<path d="M21.861 30.9164C20.2777 29.6664 19.2777 27.722 19.2777 25.5276C19.2777 21.722 22.361 18.6387 26.1666 18.6387C29.9722 18.6387 33.0555 21.722 33.0555 25.5276C33.0555 26.6942 32.7499 27.8053 32.2499 28.7498" stroke="url(#paint11_linear_1_192)" stroke-width="1.5" stroke-miterlimit="10" stroke-linecap="round" stroke-linejoin="round"/>
<path d="M26.1389 13.277C27.1514 13.277 27.9722 12.4562 27.9722 11.4437C27.9722 10.4312 27.1514 9.61035 26.1389 9.61035C25.1264 9.61035 24.3055 10.4312 24.3055 11.4437C24.3055 12.4562 25.1264 13.277 26.1389 13.277Z" stroke="url(#paint12_linear_1_192)" stroke-width="1.5" stroke-miterlimit="10"/>
<path d="M33.4722 15.3052C34.2393 15.3052 34.8611 14.6834 34.8611 13.9163C34.8611 13.1492 34.2393 12.5274 33.4722 12.5274C32.7051 12.5274 32.0833 13.1492 32.0833 13.9163C32.0833 14.6834 32.7051 15.3052 33.4722 15.3052Z" stroke="url(#paint13_linear_1_192)" stroke-width="1.5" stroke-miterlimit="10"/>
<path d="M40.1667 26.8334C40.9337 26.8334 41.5555 26.2116 41.5555 25.4446C41.5555 24.6775 40.9337 24.0557 40.1667 24.0557C39.3996 24.0557 38.7778 24.6775 38.7778 25.4446C38.7778 26.2116 39.3996 26.8334 40.1667 26.8334Z" stroke="url(#paint14_linear_1_192)" stroke-width="1.5" stroke-miterlimit="10"/>
<path d="M38.0278 20.5832C38.9636 20.5832 39.7223 19.8246 39.7223 18.8888C39.7223 17.953 38.9636 17.1943 38.0278 17.1943C37.092 17.1943 36.3334 17.953 36.3334 18.8888C36.3334 19.8246 37.092 20.5832 38.0278 20.5832Z" stroke="url(#paint15_linear_1_192)" stroke-width="1.5" stroke-miterlimit="10"/>
<path d="M25.5834 21.1392C26.9445 21.0003 28.3611 21.4169 29.4167 22.4447C31.25 24.2225 31.25 27.1392 29.4167 28.9447C27.5834 30.7503 24.6111 30.7225 22.7778 28.9447C22.2223 28.3892 21.8334 27.7503 21.6111 27.028" stroke="#281C51" stroke-width="2" stroke-linecap="round" stroke-linejoin="round"/>
<path d="M27.6111 33.7217V31.2773V25.9995C27.6111 25.3328 27.0555 24.7773 26.3889 24.7773C25.7222 24.7773 25.1667 25.3328 25.1667 25.9995V35.6106L23 33.2495C22.5833 32.8051 21.8889 32.7773 21.4444 33.1939C21.0278 33.5828 20.9722 34.2217 21.3333 34.6939L25.1111 39.4439C25.2778 39.6384 25.3611 39.8884 25.3611 40.1384V42.7495H32.5278V40.2495C33.3889 40.2495 34.1111 39.5551 34.1111 38.6662V33.1384C34.1111 32.1384 33.3055 31.3051 32.2778 31.3051H27.6111" fill="white"/>
<path d="M27.6111 33.7217V31.2773V25.9995C27.6111 25.3328 27.0555 24.7773 26.3889 24.7773C25.7222 24.7773 25.1667 25.3328 25.1667 25.9995V35.6106L23 33.2495C22.5833 32.8051 21.8889 32.7773 21.4444 33.1939C21.0278 33.5828 20.9722 34.2217 21.3333 34.694L25.1111 39.4439C25.2778 39.6384 25.3611 39.8884 25.3611 40.1384V42.7495H32.5278V40.2495C33.3889 40.2495 34.1111 39.5551 34.1111 38.6662V33.1384C34.1111 32.1384 33.3055 31.3051 32.2778 31.3051H27.6111" stroke="#281C51" stroke-width="1.5" stroke-linecap="round" stroke-linejoin="round"/>
<path d="M29.6944 31.4717V33.1661" stroke="#281C51" stroke-width="1.5" stroke-linecap="round" stroke-linejoin="round"/>
<path d="M31.6944 31.4717V33.1661" stroke="#281C51" stroke-width="1.5" stroke-linecap="round" stroke-linejoin="round"/>
<path d="M51 26C51 39.815 39.815 51 26 51C12.185 51 1.00006 39.815 1.00006 26C0.971154 12.185 12.185 1 26 1C39.815 1 51 12.185 51 26Z" stroke="url(#paint16_linear_1_192)" stroke-width="2" stroke-miterlimit="10" stroke-dasharray="7 7"/>
<path d="M1.16667 13.5551L3.75 10.8885C3.97222 10.6662 4.30556 10.6662 4.52778 10.8885L7.19444 13.4718C7.41667 13.694 7.41667 14.0274 7.19444 14.2496L4.61111 16.9162C4.38889 17.1385 4.05556 17.1385 3.83333 16.9162L1.16667 14.3329C0.944444 14.1385 0.944444 13.7774 1.16667 13.5551Z" fill="white" stroke="url(#paint17_linear_1_192)" stroke-width="1.5"/>
<path d="M43.3889 40.1387L45.8889 37.5553C46.1111 37.3331 46.4445 37.3331 46.6667 37.5553L49.25 40.0553C49.4722 40.2776 49.4722 40.6109 49.25 40.8331L46.75 43.4164C46.5278 43.6387 46.1945 43.6387 45.9722 43.4164L43.3889 40.9164C43.1667 40.722 43.1667 40.3609 43.3889 40.1387Z" fill="white" stroke="url(#paint18_linear_1_192)" stroke-width="1.5"/>
<path d="M3.11112 41.9167L6.25001 38.6667C6.47224 38.4444 6.80557 38.4444 7.02779 38.6667L10.2778 41.8056C10.5 42.0278 10.5 42.3611 10.2778 42.5833L7.1389 45.8333C6.91668 46.0556 6.58335 46.0556 6.36112 45.8333L3.11112 42.6944C2.8889 42.5 2.8889 42.1389 3.11112 41.9167Z" fill="white" stroke="#281C51" stroke-width="3"/>
<path d="M38.9444 6.08366L42.0833 2.83366C42.3055 2.61144 42.6389 2.61144 42.8611 2.83366L46.1111 5.97255C46.3333 6.19477 46.3333 6.5281 46.1111 6.75033L42.9722 10.0003C42.75 10.2225 42.4167 10.2225 42.1944 10.0003L38.9444 6.86144C38.7222 6.63921 38.7222 6.30588 38.9444 6.08366Z" fill="white" stroke="#281C51" stroke-width="2"/>
<defs>
<linearGradient id="paint0_linear_1_192" x1="6.01032" y1="25.8719" x2="46.2881" y2="25.8719" gradientUnits="userSpaceOnUse">
<stop stop-color="#092054"/>
<stop offset="0.1943" stop-color="#213E67"/>
<stop offset="0.4694" stop-color="#456F84"/>
<stop offset="0.7053" stop-color="#629A9C"/>
<stop offset="0.8897" stop-color="#76B7AE"/>
<stop offset="1" stop-color="#7EC3B4"/>
</linearGradient>
<linearGradient id="paint1_linear_1_192" x1="-nan" y1="-nan" x2="-nan" y2="-nan" gradientUnits="userSpaceOnUse">
<stop stop-color="#0491B2"/>
<stop offset="1" stop-color="#29F4F4"/>
</linearGradient>
<linearGradient id="paint2_linear_1_192" x1="-nan" y1="-nan" x2="-nan" y2="-nan" gradientUnits="userSpaceOnUse">
<stop stop-color="#0491B2"/>
<stop offset="1" stop-color="#29F4F4"/>
</linearGradient>
<linearGradient id="paint3_linear_1_192" x1="20.5437" y1="18.0387" x2="18.6059" y2="18.5732" gradientUnits="userSpaceOnUse">
<stop stop-color="#0491B2"/>
<stop offset="1" stop-color="#29F4F4"/>
</linearGradient>
<linearGradient id="paint4_linear_1_192" x1="20.4054" y1="13.4775" x2="17.2161" y2="14.3571" gradientUnits="userSpaceOnUse">
<stop stop-color="#0491B2"/>
<stop offset="1" stop-color="#29F4F4"/>
</linearGradient>
<linearGradient id="paint5_linear_1_192" x1="13.6929" y1="25.0154" x2="10.5036" y2="25.895" gradientUnits="userSpaceOnUse">
<stop stop-color="#0491B2"/>
<stop offset="1" stop-color="#29F4F4"/>
</linearGradient>
<linearGradient id="paint6_linear_1_192" x1="16.1492" y1="18.3611" x2="12.3703" y2="19.4033" gradientUnits="userSpaceOnUse">
<stop stop-color="#0491B2"/>
<stop offset="1" stop-color="#29F4F4"/>
</linearGradient>
<linearGradient id="paint7_linear_1_192" x1="-nan" y1="-nan" x2="-nan" y2="-nan" gradientUnits="userSpaceOnUse">
<stop stop-color="#0491B2"/>
<stop offset="1" stop-color="#29F4F4"/>
</linearGradient>
<linearGradient id="paint8_linear_1_192" x1="-nan" y1="-nan" x2="-nan" y2="-nan" gradientUnits="userSpaceOnUse">
<stop stop-color="#0491B2"/>
<stop offset="1" stop-color="#29F4F4"/>
</linearGradient>
<linearGradient id="paint9_linear_1_192" x1="-nan" y1="-nan" x2="-nan" y2="-nan" gradientUnits="userSpaceOnUse">
<stop stop-color="#0491B2"/>
<stop offset="1" stop-color="#29F4F4"/>
</linearGradient>
<linearGradient id="paint10_linear_1_192" x1="31.7325" y1="18.0387" x2="33.6704" y2="18.5732" gradientUnits="userSpaceOnUse">
<stop stop-color="#0491B2"/>
<stop offset="1" stop-color="#29F4F4"/>
</linearGradient>
<linearGradient id="paint11_linear_1_192" x1="19.1901" y1="23.3386" x2="33.2617" y2="27.2194" gradientUnits="userSpaceOnUse">
<stop stop-color="#0491B2"/>
<stop offset="1" stop-color="#29F4F4"/>
</linearGradient>
<linearGradient id="paint12_linear_1_192" x1="24.1152" y1="10.8833" x2="28.1889" y2="12.0068" gradientUnits="userSpaceOnUse">
<stop stop-color="#0491B2"/>
<stop offset="1" stop-color="#29F4F4"/>
</linearGradient>
<linearGradient id="paint13_linear_1_192" x1="31.8709" y1="13.4775" x2="35.0601" y2="14.3571" gradientUnits="userSpaceOnUse">
<stop stop-color="#0491B2"/>
<stop offset="1" stop-color="#29F4F4"/>
</linearGradient>
<linearGradient id="paint14_linear_1_192" x1="38.5834" y1="25.0154" x2="41.7726" y2="25.895" gradientUnits="userSpaceOnUse">
<stop stop-color="#0491B2"/>
<stop offset="1" stop-color="#29F4F4"/>
</linearGradient>
<linearGradient id="paint15_linear_1_192" x1="36.1272" y1="18.3611" x2="39.9061" y2="19.4033" gradientUnits="userSpaceOnUse">
<stop stop-color="#0491B2"/>
<stop offset="1" stop-color="#29F4F4"/>
</linearGradient>
<linearGradient id="paint16_linear_1_192" x1="0.688033" y1="26.0053" x2="51.2875" y2="26.0053" gradientUnits="userSpaceOnUse">
<stop stop-color="#00C0B4"/>
<stop offset="1" stop-color="#29C9F3"/>
</linearGradient>
<linearGradient id="paint17_linear_1_192" x1="2.89846" y1="15.8132" x2="5.42587" y2="11.9548" gradientUnits="userSpaceOnUse">
<stop stop-color="#0491B2"/>
<stop offset="1" stop-color="#29F4F4"/>
</linearGradient>
<linearGradient id="paint18_linear_1_192" x1="45.0847" y1="42.3596" x2="47.5494" y2="38.5968" gradientUnits="userSpaceOnUse">
<stop stop-color="#0491B2"/>
<stop offset="1" stop-color="#29F4F4"/>
</linearGradient>
</defs>
</svg>
