<svg width="352" height="365" viewBox="0 0 352 365" fill="none" xmlns="http://www.w3.org/2000/svg">
<path opacity="0.5" d="M0 365H118.629C119.556 362.972 119.556 359.931 119.556 357.903C119.556 346.75 113.995 338.639 103.801 334.583C93.606 330.528 76.9238 326.472 53.7539 322.417C32.4377 318.361 13.9019 314.306 0 310.25V365H0ZM344.767 131.806C337.352 135.861 331.792 142.958 328.084 151.069C324.377 159.181 321.597 169.319 321.597 179.458C321.597 190.611 323.45 199.736 328.084 207.847C332.718 215.958 338.279 222.042 344.767 227.111L346.62 228.125C349.401 213.931 351.254 198.722 351.254 182.5C351.254 164.25 349.401 147.014 344.767 131.806ZM0 1.01389V54.75C13.9019 54.75 25.0234 49.6806 33.3645 39.5417C42.6324 29.4028 46.3396 16.2222 46.3396 0H0V1.01389ZM84.3381 1.01389C84.3381 18.25 80.6309 33.4583 73.2166 46.6389C66.729 60.8333 56.5343 70.9722 43.5592 79.0833C30.5841 86.1806 16.6823 90.2361 0 90.2361V138.903C18.5358 130.792 41.7057 126.736 67.6558 126.736C82.4845 126.736 97.3132 127.75 112.142 130.792V96.3195H159.408C183.505 96.3195 202.967 103.417 216.869 118.625C231.698 133.833 238.186 155.125 238.186 182.5C238.186 209.875 230.771 231.167 216.869 246.375C202.041 261.583 183.505 268.681 159.408 268.681H112.142V192.639C98.24 188.583 83.4113 186.556 66.729 186.556C46.3396 186.556 31.5109 189.597 21.3162 196.694C11.1215 202.778 5.56075 211.903 5.56075 223.056C5.56075 235.222 11.1215 243.333 22.243 248.403C33.3645 253.472 50.9736 258.542 74.1434 262.597C97.3132 266.653 116.776 270.708 131.604 276.792C146.433 281.861 159.408 290.986 170.53 303.153C181.651 315.319 186.285 333.569 186.285 355.875C186.285 358.917 186.285 361.958 186.285 365C214.089 362.972 240.039 355.875 262.282 343.708C275.257 336.611 287.306 328.5 298.427 318.361V269.694H333.645C334.572 267.667 335.499 266.653 335.499 264.625C330.865 262.597 327.158 260.569 323.45 258.542C311.402 251.444 301.207 240.292 294.72 227.111C287.306 213.931 284.525 197.708 284.525 180.472C284.525 163.236 288.232 147.014 294.72 133.833C298.427 125.722 303.988 119.639 309.549 113.556H305.841V55.7639C293.793 42.5833 278.964 31.4306 262.282 23.3194C233.552 8.11111 201.114 1.01389 164.042 1.01389H84.3381Z" fill="url(#paint0_linear_1_43)" fill-opacity="0.25"/>
<defs>
<linearGradient id="paint0_linear_1_43" x1="0" y1="0" x2="418.479" y2="144.699" gradientUnits="userSpaceOnUse">
<stop stop-color="#316EFF"/>
<stop offset="1" stop-color="#D4008C"/>
</linearGradient>
</defs>
</svg>
