<svg width="53" height="52" viewBox="0 0 53 52" fill="none" xmlns="http://www.w3.org/2000/svg">
<path d="M47.0449 26.1838C47.0449 37.3161 38.0383 46.3227 26.906 46.3227C15.7736 46.3227 6.76709 37.3161 6.76709 26.1838C6.76709 15.0515 15.7736 6.04492 26.906 6.04492C38.0383 6.04492 47.0449 15.0795 47.0449 26.1838Z" fill="white"/>
<path opacity="0.1" d="M47.0449 26.1838C47.0449 37.3161 38.0383 46.3227 26.906 46.3227C15.7736 46.3227 6.76709 37.3161 6.76709 26.1838C6.76709 15.0515 15.7736 6.04492 26.906 6.04492C38.0383 6.04492 47.0449 15.0795 47.0449 26.1838Z" fill="url(#paint0_linear_1_156)"/>
<path d="M52 26C52 39.815 40.8215 50.9999 27.0144 50.9999C13.1785 51.0288 2 39.815 2 26C2 12.185 13.1785 1 26.9856 1C40.7926 1 52 12.185 52 26Z" stroke="url(#paint1_linear_1_156)" stroke-width="2" stroke-miterlimit="10" stroke-dasharray="7 7"/>
<path d="M48.314 12.6169H44.2476C43.9281 12.6169 43.6667 12.3555 43.6667 12.036V7.96958C43.6667 7.65008 43.9281 7.38867 44.2476 7.38867H48.314C48.6335 7.38867 48.8949 7.65008 48.8949 7.96958V12.036C48.8949 12.3555 48.6335 12.6169 48.314 12.6169Z" fill="white" stroke="#261D53" stroke-width="3"/>
<path d="M6.64728 41.5055H2.58091C2.26141 41.5055 2 41.2441 2 40.9246V36.8583C2 36.5388 2.26141 36.2773 2.58091 36.2773H6.64728C6.96678 36.2773 7.22819 36.5388 7.22819 36.8583V40.9246C7.22819 41.2441 6.96678 41.5055 6.64728 41.5055Z" fill="white" stroke="#261D53" stroke-width="3"/>
<path d="M13.0869 9.057H7.85868C7.53918 9.057 7.27777 8.79559 7.27777 8.47609V3.2479C7.27777 2.9284 7.53918 2.66699 7.85868 2.66699H13.0869C13.4064 2.66699 13.6678 2.9284 13.6678 3.2479V8.47609C13.6678 8.79559 13.4064 9.057 13.0869 9.057Z" fill="white" stroke="url(#paint2_linear_1_156)" stroke-width="3"/>
<path d="M49.4758 46.2787H44.2476C43.9281 46.2787 43.6667 46.0173 43.6667 45.6978V40.4696C43.6667 40.1501 43.9281 39.8887 44.2476 39.8887H49.4758C49.7953 39.8887 50.0567 40.1501 50.0567 40.4696V45.6978C50.0567 46.0173 49.7953 46.2787 49.4758 46.2787Z" fill="white" stroke="url(#paint3_linear_1_156)" stroke-width="3"/>
<path d="M33.4019 24.1994C33.4019 24.1994 34.9703 23.0666 35.5803 25.216C36.1902 27.3653 36.713 31.5188 36.713 31.5188L36.1031 35.3528L37.323 39.9711C37.323 39.9711 39.6757 42.4399 39.85 42.6142C40.0242 42.7885 40.7504 43.5727 38.7753 43.5727C36.8002 43.5727 27.6218 43.5727 27.6218 43.5727L25.2401 41.191L18.0368 25.855C18.0368 25.855 16.1198 24.1703 15.1903 23.2118C14.2609 22.2533 14.2028 21.2948 14.7837 20.6558C15.3646 19.9878 16.3231 19.7554 17.1945 20.6558C18.7339 20.9753 33.4019 24.1994 33.4019 24.1994Z" fill="white" stroke="url(#paint4_linear_1_156)" stroke-width="1.5"/>
<path d="M31.4849 13.1326C31.1073 13.1326 30.7878 13.1326 30.4393 13.1326C30.4393 12.784 30.4393 12.4355 30.4393 12.0869C30.7878 12.0869 31.1364 12.0869 31.4849 12.0869C31.4849 12.4064 31.4849 12.755 31.4849 13.1326Z" fill="url(#paint5_linear_1_156)"/>
<path d="M28.0284 16.5886C27.6508 16.5886 27.3313 16.5886 26.9828 16.5886C26.9828 16.2401 26.9828 15.8915 26.9828 15.543C27.3313 15.543 27.6799 15.543 28.0284 15.543C28.0284 15.8625 28.0284 16.211 28.0284 16.5886Z" fill="url(#paint6_linear_1_156)"/>
<path d="M23.5264 34.8591C23.0907 34.8591 22.655 34.8591 22.1903 34.8591C22.1903 34.5106 22.1903 34.162 22.1903 33.8135C22.626 33.8135 23.0617 33.8135 23.5264 33.8135C23.5264 34.133 23.5264 34.4815 23.5264 34.8591Z" fill="url(#paint7_linear_1_156)"/>
<path d="M25.6467 34.8591C25.2982 34.8591 24.9496 34.8591 24.6011 34.8591C24.6011 34.5106 24.6011 34.162 24.6011 33.8135C24.9496 33.8135 25.2982 33.8135 25.6467 33.8135C25.6467 34.133 25.6467 34.4815 25.6467 34.8591Z" fill="url(#paint8_linear_1_156)"/>
<path d="M26.9828 33.7842C27.3313 33.7842 27.6799 33.7842 28.0284 33.7842C28.0284 34.1327 28.0284 34.4813 28.0284 34.8298C27.6799 34.8298 27.3313 34.8298 26.9828 34.8298C26.9828 34.5103 26.9828 34.1618 26.9828 33.7842Z" fill="url(#paint9_linear_1_156)"/>
<path d="M24.572 16.5886C24.572 16.211 24.572 15.8915 24.572 15.543C24.9206 15.543 25.2691 15.543 25.6177 15.543C25.6177 15.8915 25.6177 16.2401 25.6177 16.5886C25.2982 16.5886 24.9496 16.5886 24.572 16.5886Z" fill="url(#paint10_linear_1_156)"/>
<path d="M23.5264 15.5137C23.5264 15.8622 23.5264 16.2108 23.5264 16.5593C23.0907 16.5593 22.655 16.5593 22.1903 16.5593C22.1903 16.2108 22.1903 15.8622 22.1903 15.5137C22.626 15.5137 23.0617 15.5137 23.5264 15.5137Z" fill="url(#paint11_linear_1_156)"/>
<path d="M24.0493 38.2861C24.7755 38.2861 25.4435 38.2861 26.1696 38.2861C26.1696 38.6347 26.1696 38.9832 26.1696 39.3318C25.4725 39.3318 24.7755 39.3318 24.0493 39.3318C24.0493 39.0123 24.0493 38.6637 24.0493 38.2861Z" fill="url(#paint12_linear_1_156)"/>
<path d="M30.7587 41.3357H19.6924C18.2401 41.3357 17.0493 40.1449 17.0493 38.6926V12.6969C17.0493 11.2446 18.2401 10.0537 19.6924 10.0537H30.7587C32.211 10.0537 33.4019 11.2446 33.4019 12.6969V38.6926C33.4019 40.1449 32.211 41.3357 30.7587 41.3357Z" fill="white" stroke="url(#paint13_linear_1_156)" stroke-width="1.5"/>
<path d="M29.1322 24.0543H26.7505C26.431 24.0543 26.1696 23.7929 26.1696 23.4734V21.0917C26.1696 20.7722 26.431 20.5107 26.7505 20.5107H29.1322C29.4517 20.5107 29.7131 20.7722 29.7131 21.0917V23.4734C29.7131 23.8219 29.4517 24.0543 29.1322 24.0543Z" fill="white" stroke="url(#paint14_linear_1_156)"/>
<path d="M29.1322 29.5436H26.7505C26.431 29.5436 26.1696 29.2821 26.1696 28.9626V26.5809C26.1696 26.2614 26.431 26 26.7505 26H29.1322C29.4517 26 29.7131 26.2614 29.7131 26.5809V28.9626C29.7131 29.2821 29.4517 29.5436 29.1322 29.5436Z" fill="white" stroke="#261D53"/>
<path d="M23.5264 29.5436H21.1447C20.8252 29.5436 20.5638 29.2821 20.5638 28.9626V26.5809C20.5638 26.2614 20.8252 26 21.1447 26H23.5264C23.8459 26 24.1073 26.2614 24.1073 26.5809V28.9626C24.1073 29.2821 23.8459 29.5436 23.5264 29.5436Z" fill="white" stroke="#261D53"/>
<path d="M23.5264 24.0543H21.1447C20.8252 24.0543 20.5638 23.7929 20.5638 23.4734V21.0917C20.5638 20.7722 20.8252 20.5107 21.1447 20.5107H23.5264C23.8459 20.5107 24.1073 20.7722 24.1073 21.0917V23.4734C24.1073 23.8219 23.8459 24.0543 23.5264 24.0543Z" fill="white" stroke="#261D53"/>
<path d="M32.9371 36.6592H17.0782" stroke="url(#paint15_linear_1_156)" stroke-width="1.5"/>
<path d="M24.1074 38.8369H26.1696" stroke="url(#paint16_linear_1_156)" stroke-width="1.5"/>
<path d="M27.9705 33.7256H26.8087V34.8874H27.9705V33.7256Z" fill="url(#paint17_linear_1_156)"/>
<path d="M25.7049 33.7256H24.543V34.8874H25.7049V33.7256Z" fill="url(#paint18_linear_1_156)"/>
<path d="M23.4393 33.7256H22.2775V34.8874H23.4393V33.7256Z" fill="url(#paint19_linear_1_156)"/>
<path d="M27.9705 15.4561H26.8087V16.6179H27.9705V15.4561Z" fill="url(#paint20_linear_1_156)"/>
<path d="M31.5139 12.0283H30.3521V13.1901H31.5139V12.0283Z" fill="url(#paint21_linear_1_156)"/>
<path d="M25.7049 15.4561H24.543V16.6179H25.7049V15.4561Z" fill="url(#paint22_linear_1_156)"/>
<path d="M23.4393 15.4561H22.2775V16.6179H23.4393V15.4561Z" fill="url(#paint23_linear_1_156)"/>
<path d="M21.6384 10.0537V12.0869C21.6384 12.3193 21.8127 12.4935 22.0451 12.4935H28.2318C28.4641 12.4935 28.6384 12.3193 28.6384 12.0869V10.0537" stroke="url(#paint24_linear_1_156)" stroke-width="1.5" stroke-miterlimit="10"/>
<path d="M20.7962 30.0659C20.2443 30.6759 19.3149 30.763 18.6758 30.2112L15.7423 27.6261C15.1323 27.0743 15.0452 26.1448 15.597 25.5058C16.1489 24.8958 17.0783 24.8087 17.7173 25.3606L20.6509 27.9456C21.2609 28.4975 21.348 29.4269 20.7962 30.0659Z" fill="white" stroke="url(#paint25_linear_1_156)" stroke-width="1.5"/>
<path d="M19.7888 33.2945C19.2369 33.9044 18.3075 33.9916 17.6685 33.4397L14.7349 30.8546C14.1249 30.3028 14.0378 29.3733 14.5896 28.7343C15.1415 28.1244 16.071 28.0372 16.71 28.5891L19.6436 31.1741C20.2826 31.726 20.3407 32.6845 19.7888 33.2945Z" fill="white" stroke="url(#paint26_linear_1_156)" stroke-width="1.5"/>
<path d="M19.511 36.9068C18.9592 37.5167 18.0297 37.6039 17.3907 37.052L14.4571 34.4669C13.8471 33.9151 13.76 32.9856 14.3119 32.3466C14.8637 31.7367 15.7932 31.6495 16.4322 32.2014L19.3658 34.7864C20.0048 35.3093 20.0629 36.2678 19.511 36.9068Z" fill="white" stroke="url(#paint27_linear_1_156)" stroke-width="1.5"/>
<defs>
<linearGradient id="paint0_linear_1_156" x1="6.77747" y1="26.1942" x2="47.0552" y2="26.1942" gradientUnits="userSpaceOnUse">
<stop stop-color="#092054"/>
<stop offset="0.1943" stop-color="#213E67"/>
<stop offset="0.4694" stop-color="#456F84"/>
<stop offset="0.7053" stop-color="#629A9C"/>
<stop offset="0.8897" stop-color="#76B7AE"/>
<stop offset="1" stop-color="#7EC3B4"/>
</linearGradient>
<linearGradient id="paint1_linear_1_156" x1="1.71115" y1="26.0107" x2="52.2814" y2="26.0107" gradientUnits="userSpaceOnUse">
<stop stop-color="#00C0B4"/>
<stop offset="1" stop-color="#29C9F3"/>
</linearGradient>
<linearGradient id="paint2_linear_1_156" x1="6.97294" y1="5.85526" x2="13.9439" y2="5.85526" gradientUnits="userSpaceOnUse">
<stop stop-color="#00C0B4"/>
<stop offset="1" stop-color="#29C9F3"/>
</linearGradient>
<linearGradient id="paint3_linear_1_156" x1="43.3763" y1="43.0931" x2="50.3472" y2="43.0931" gradientUnits="userSpaceOnUse">
<stop stop-color="#00C0B4"/>
<stop offset="1" stop-color="#29C9F3"/>
</linearGradient>
<linearGradient id="paint4_linear_1_156" x1="13.9657" y1="31.8441" x2="40.5504" y2="31.8441" gradientUnits="userSpaceOnUse">
<stop stop-color="#00C0B4"/>
<stop offset="1" stop-color="#29C9F3"/>
</linearGradient>
<linearGradient id="paint5_linear_1_156" x1="30.4128" y1="12.604" x2="31.4724" y2="12.6054" gradientUnits="userSpaceOnUse">
<stop stop-color="#00C0B4"/>
<stop offset="1" stop-color="#29C9F3"/>
</linearGradient>
<linearGradient id="paint6_linear_1_156" x1="26.969" y1="16.0475" x2="28.0286" y2="16.0489" gradientUnits="userSpaceOnUse">
<stop stop-color="#00C0B4"/>
<stop offset="1" stop-color="#29C9F3"/>
</linearGradient>
<linearGradient id="paint7_linear_1_156" x1="22.2006" y1="34.3274" x2="23.5251" y2="34.3294" gradientUnits="userSpaceOnUse">
<stop stop-color="#00C0B4"/>
<stop offset="1" stop-color="#29C9F3"/>
</linearGradient>
<linearGradient id="paint8_linear_1_156" x1="24.5848" y1="34.3265" x2="25.6444" y2="34.3276" gradientUnits="userSpaceOnUse">
<stop stop-color="#00C0B4"/>
<stop offset="1" stop-color="#29C9F3"/>
</linearGradient>
<linearGradient id="paint9_linear_1_156" x1="26.969" y1="34.3262" x2="28.0286" y2="34.3274" gradientUnits="userSpaceOnUse">
<stop stop-color="#00C0B4"/>
<stop offset="1" stop-color="#29C9F3"/>
</linearGradient>
<linearGradient id="paint10_linear_1_156" x1="24.5848" y1="16.0475" x2="25.6444" y2="16.0489" gradientUnits="userSpaceOnUse">
<stop stop-color="#00C0B4"/>
<stop offset="1" stop-color="#29C9F3"/>
</linearGradient>
<linearGradient id="paint11_linear_1_156" x1="22.2006" y1="16.048" x2="23.5251" y2="16.0501" gradientUnits="userSpaceOnUse">
<stop stop-color="#00C0B4"/>
<stop offset="1" stop-color="#29C9F3"/>
</linearGradient>
<linearGradient id="paint12_linear_1_156" x1="24.0547" y1="38.8341" x2="26.174" y2="38.8396" gradientUnits="userSpaceOnUse">
<stop stop-color="#00C0B4"/>
<stop offset="1" stop-color="#29C9F3"/>
</linearGradient>
<linearGradient id="paint13_linear_1_156" x1="16.63" y1="25.6955" x2="33.8394" y2="25.6955" gradientUnits="userSpaceOnUse">
<stop stop-color="#00C0B4"/>
<stop offset="1" stop-color="#29C9F3"/>
</linearGradient>
<linearGradient id="paint14_linear_1_156" x1="25.7384" y1="22.2972" x2="30.152" y2="22.2972" gradientUnits="userSpaceOnUse">
<stop stop-color="#00C0B4"/>
<stop offset="1" stop-color="#29C9F3"/>
</linearGradient>
<linearGradient id="paint15_linear_1_156" x1="17.0782" y1="37.1592" x2="32.9371" y2="37.1592" gradientUnits="userSpaceOnUse">
<stop stop-color="#00C0B4"/>
<stop offset="1" stop-color="#29C9F3"/>
</linearGradient>
<linearGradient id="paint16_linear_1_156" x1="-nan" y1="-nan" x2="-nan" y2="-nan" gradientUnits="userSpaceOnUse">
<stop stop-color="#00C0B4"/>
<stop offset="1" stop-color="#29C9F3"/>
</linearGradient>
<linearGradient id="paint17_linear_1_156" x1="26.8147" y1="34.3209" x2="27.9765" y2="34.3209" gradientUnits="userSpaceOnUse">
<stop stop-color="#00C0B4"/>
<stop offset="1" stop-color="#29C9F3"/>
</linearGradient>
<linearGradient id="paint18_linear_1_156" x1="24.5336" y1="34.3209" x2="25.6954" y2="34.3209" gradientUnits="userSpaceOnUse">
<stop stop-color="#00C0B4"/>
<stop offset="1" stop-color="#29C9F3"/>
</linearGradient>
<linearGradient id="paint19_linear_1_156" x1="22.2819" y1="34.3209" x2="23.4438" y2="34.3209" gradientUnits="userSpaceOnUse">
<stop stop-color="#00C0B4"/>
<stop offset="1" stop-color="#29C9F3"/>
</linearGradient>
<linearGradient id="paint20_linear_1_156" x1="26.8147" y1="16.0463" x2="27.9765" y2="16.0463" gradientUnits="userSpaceOnUse">
<stop stop-color="#00C0B4"/>
<stop offset="1" stop-color="#29C9F3"/>
</linearGradient>
<linearGradient id="paint21_linear_1_156" x1="30.3615" y1="12.6021" x2="31.5233" y2="12.6021" gradientUnits="userSpaceOnUse">
<stop stop-color="#00C0B4"/>
<stop offset="1" stop-color="#29C9F3"/>
</linearGradient>
<linearGradient id="paint22_linear_1_156" x1="24.5336" y1="16.0463" x2="25.6954" y2="16.0463" gradientUnits="userSpaceOnUse">
<stop stop-color="#00C0B4"/>
<stop offset="1" stop-color="#29C9F3"/>
</linearGradient>
<linearGradient id="paint23_linear_1_156" x1="22.2819" y1="16.0463" x2="23.4438" y2="16.0463" gradientUnits="userSpaceOnUse">
<stop stop-color="#00C0B4"/>
<stop offset="1" stop-color="#29C9F3"/>
</linearGradient>
<linearGradient id="paint24_linear_1_156" x1="21.2046" y1="11.4993" x2="29.1014" y2="11.4993" gradientUnits="userSpaceOnUse">
<stop stop-color="#00C0B4"/>
<stop offset="1" stop-color="#29C9F3"/>
</linearGradient>
<linearGradient id="paint25_linear_1_156" x1="16.9169" y1="29.2334" x2="19.4696" y2="26.3237" gradientUnits="userSpaceOnUse">
<stop stop-color="#00C0B4"/>
<stop offset="1" stop-color="#29C9F3"/>
</linearGradient>
<linearGradient id="paint26_linear_1_156" x1="15.9222" y1="32.4757" x2="18.4749" y2="29.5661" gradientUnits="userSpaceOnUse">
<stop stop-color="#00C0B4"/>
<stop offset="1" stop-color="#29C9F3"/>
</linearGradient>
<linearGradient id="paint27_linear_1_156" x1="15.6355" y1="36.069" x2="18.1882" y2="33.1594" gradientUnits="userSpaceOnUse">
<stop stop-color="#00C0B4"/>
<stop offset="1" stop-color="#29C9F3"/>
</linearGradient>
</defs>
</svg>
