<svg width="53" height="55" viewBox="0 0 53 55" fill="none" xmlns="http://www.w3.org/2000/svg">
<path d="M47.0449 27.6949C47.0449 39.4951 38.0383 49.0421 26.906 49.0421C15.7737 49.0421 6.76712 39.4951 6.76712 27.6949C6.76712 15.8946 15.7737 6.34766 26.906 6.34766C38.0383 6.34766 47.0449 15.9243 47.0449 27.6949Z" fill="white"/>
<path d="M52 27.5C52 42.1439 40.8215 53.9999 27.0144 53.9999C13.1785 54.0306 2 42.1439 2 27.5C2 12.8561 13.1785 1 26.9856 1C40.7926 1 52 12.8561 52 27.5Z" stroke="url(#paint0_linear_1_136)" stroke-width="2" stroke-miterlimit="10" stroke-dasharray="7 7"/>
<path d="M48.314 13.3143H44.2476C43.9281 13.3143 43.6667 13.0373 43.6667 12.6986V8.38823C43.6667 8.04956 43.9281 7.77246 44.2476 7.77246H48.314C48.6335 7.77246 48.8949 8.04956 48.8949 8.38823V12.6986C48.8949 13.0373 48.6335 13.3143 48.314 13.3143Z" fill="white" stroke="#261D53" stroke-width="3"/>
<path d="M6.64728 43.9364H2.58091C2.26141 43.9364 2 43.6593 2 43.3206V39.0103C2 38.6716 2.26141 38.3945 2.58091 38.3945H6.64728C6.96678 38.3945 7.22819 38.6716 7.22819 39.0103V43.3206C7.22819 43.6593 6.96678 43.9364 6.64728 43.9364Z" fill="white" stroke="#261D53" stroke-width="3"/>
<path d="M13.0869 9.54001H7.8587C7.5392 9.54001 7.27779 9.26292 7.27779 8.92425V3.38237C7.27779 3.0437 7.5392 2.7666 7.8587 2.7666H13.0869C13.4064 2.7666 13.6678 3.0437 13.6678 3.38237V8.92425C13.6678 9.26292 13.4064 9.54001 13.0869 9.54001Z" fill="white" stroke="url(#paint1_linear_1_136)" stroke-width="3"/>
<path d="M49.4758 48.9956H44.2476C43.9281 48.9956 43.6667 48.7185 43.6667 48.3798V42.8379C43.6667 42.4993 43.9281 42.2222 44.2476 42.2222H49.4758C49.7953 42.2222 50.0567 42.4993 50.0567 42.8379V48.3798C50.0567 48.7185 49.7953 48.9956 49.4758 48.9956Z" fill="white" stroke="url(#paint2_linear_1_136)" stroke-width="3"/>
<g clip-path="url(#clip0_1_136)">
<path d="M38.2467 25.8883C38.2467 28.7016 38.2495 31.512 38.2439 34.3253C38.2439 34.7561 38.2077 35.1868 38.205 35.6176C38.2022 36.2682 37.8931 36.7465 37.4532 37.1416C37.2109 37.3585 36.9381 37.5308 36.6262 37.6199C36.5872 37.6318 36.5455 37.6704 36.5232 37.7091C36.487 37.7714 36.4591 37.8398 36.4341 37.9111C36.164 38.6894 35.6461 39.1855 34.9138 39.444C34.8609 39.4618 34.8108 39.5242 34.7829 39.5807C34.7273 39.6935 34.6966 39.8213 34.6465 39.9371C34.4098 40.4867 34.0228 40.8729 33.5188 41.1403C33.3184 41.2473 33.1207 41.2948 32.8951 41.2948C27.8749 41.2889 22.8546 41.2918 17.8344 41.2889C17.723 41.2889 17.6032 41.2562 17.5058 41.2027C17.283 41.0809 17.0547 40.9621 16.8598 40.7987C16.3308 40.3531 16.0663 39.7589 16.0635 39.0311C16.0607 38.1636 16.0384 37.2991 16.0384 36.4316C16.0356 31.5001 16.0356 26.5686 16.0384 21.64C16.0384 20.9954 16.0802 20.3537 16.0858 19.709C16.0941 19.0228 16.4254 18.5326 16.8988 18.1285C17.1299 17.9325 17.3888 17.778 17.684 17.6889C17.7425 17.671 17.7842 17.573 17.8176 17.5017C17.9207 17.2908 18.0014 17.068 18.1156 16.866C18.3578 16.4382 18.717 16.153 19.1486 15.9777C19.388 15.8797 19.5245 15.7192 19.6164 15.4608C19.8614 14.7745 20.3459 14.3378 20.9807 14.0942C21.1366 14.0348 21.3204 14.0437 21.4903 14.0437C23.7233 14.0318 25.9536 14.017 28.1867 14.014C30.5256 14.011 32.8645 14.017 35.2034 14.0199C35.6405 14.0199 36.0749 14.0199 36.5121 14.0259C36.5928 14.0259 36.6819 14.0467 36.7487 14.0883C37.0105 14.2457 37.2889 14.3883 37.5172 14.5903C37.9989 15.0181 38.23 15.5855 38.2328 16.2629C38.2356 17.0799 38.2579 17.8968 38.2579 18.7138C38.2607 21.1053 38.2579 23.4968 38.2579 25.8883C38.2551 25.8883 38.2495 25.8883 38.2467 25.8883Z" fill="white"/>
<path d="M38.2467 25.8883C38.2467 28.7016 38.2495 31.512 38.2439 34.3253C38.2439 34.7561 38.2077 35.1868 38.205 35.6176C38.2022 36.2682 37.8931 36.7465 37.4532 37.1416C37.2109 37.3585 36.9381 37.5308 36.6262 37.6199C36.5872 37.6318 36.5455 37.6704 36.5232 37.7091C36.487 37.7714 36.4591 37.8398 36.4341 37.9111C36.164 38.6894 35.6461 39.1855 34.9138 39.444C34.8609 39.4618 34.8108 39.5242 34.7829 39.5807C34.7273 39.6935 34.6966 39.8213 34.6465 39.9372C34.4098 40.4867 34.0228 40.873 33.5188 41.1403C33.3184 41.2473 33.1207 41.2948 32.8951 41.2948C27.8749 41.2889 22.8546 41.2918 17.8344 41.2889C17.723 41.2889 17.6032 41.2562 17.5058 41.2027C17.283 41.0809 17.0547 40.9621 16.8598 40.7987C16.3308 40.3531 16.0663 39.7589 16.0635 39.0311C16.0607 38.1636 16.0384 37.2991 16.0384 36.4316C16.0356 31.5001 16.0356 26.5686 16.0384 21.64C16.0384 20.9954 16.0802 20.3537 16.0858 19.709C16.0941 19.0228 16.4254 18.5326 16.8988 18.1285C17.1299 17.9325 17.3888 17.778 17.684 17.6889C17.7425 17.671 17.7842 17.573 17.8176 17.5017C17.9207 17.2908 18.0014 17.068 18.1156 16.866C18.3578 16.4382 18.717 16.153 19.1486 15.9777C19.388 15.8797 19.5245 15.7192 19.6164 15.4608C19.8614 14.7745 20.3459 14.3378 20.9807 14.0942C21.1366 14.0348 21.3204 14.0437 21.4903 14.0437C23.7233 14.0318 25.9536 14.017 28.1867 14.014C30.5256 14.011 32.8645 14.017 35.2034 14.0199C35.6405 14.0199 36.0749 14.0199 36.5121 14.0259C36.5928 14.0259 36.6819 14.0467 36.7487 14.0883C37.0105 14.2457 37.2889 14.3883 37.5172 14.5903C37.9989 15.0181 38.23 15.5855 38.2328 16.2629C38.2356 17.0799 38.2579 17.8968 38.2579 18.7138C38.2606 21.1053 38.2579 23.4968 38.2579 25.8883C38.2551 25.8883 38.2495 25.8883 38.2467 25.8883ZM16.9016 29.5037C16.9044 29.5037 16.9044 29.5037 16.9016 29.5037C16.9016 32.7449 16.9044 35.989 16.8988 39.2301C16.8988 39.4796 16.9656 39.6846 17.0993 39.8748C17.3248 40.1956 17.606 40.4006 18.0014 40.3947C18.3077 40.3887 18.614 40.4154 18.9203 40.4154C23.5229 40.4214 28.1255 40.4214 32.7281 40.4333C32.9898 40.4333 33.2181 40.3739 33.4325 40.2223C33.7332 40.0114 33.9254 39.7351 33.9365 39.3341C33.9504 38.7756 33.9866 38.2171 33.9866 37.6586C33.995 33.1697 33.995 28.6778 34.0033 24.189C34.0033 24.0434 33.9615 24.0077 33.8307 24.0077C32.7643 24.0137 31.6951 24.0137 30.6286 24.0077C30.1776 24.0048 29.7293 23.9929 29.281 23.9691C28.9552 23.9513 28.9051 23.8859 28.9023 23.5443C28.894 22.0054 28.8884 20.4666 28.8828 18.9247C28.88 18.5326 28.8828 18.5296 28.5041 18.5266C26.5634 18.5207 24.6255 18.5088 22.6848 18.5147C21.1478 18.5177 19.6136 18.5385 18.0766 18.5593C17.9095 18.5623 17.7313 18.6009 17.5782 18.6752C17.1717 18.8712 16.9294 19.2069 16.9211 19.7031C16.9183 19.9259 16.9044 20.1487 16.9044 20.3715C16.9016 23.4166 16.9016 26.4616 16.9016 29.5037ZM20.3849 15.7103C20.5408 15.7222 20.6744 15.7371 20.8053 15.7371C23.069 15.7519 25.3327 15.7697 27.5964 15.7816C29.3228 15.7905 31.0491 15.7905 32.7754 15.7994C32.8367 15.7994 32.9146 15.8262 32.9592 15.8707C34.137 17.1214 35.3092 18.3751 36.4814 19.6318C36.5232 19.6763 36.5538 19.7595 36.5566 19.8249C36.5622 20.2645 36.5594 20.7072 36.5594 21.1469C36.5594 24.5187 36.5566 27.8906 36.5622 31.2595C36.565 33.0122 36.5817 34.765 36.5928 36.5178C36.5928 36.5772 36.6039 36.6366 36.6123 36.7138C36.8295 36.6217 36.977 36.4702 37.1135 36.3098C37.2945 36.0929 37.3947 35.8553 37.3947 35.5463C37.3891 29.0551 37.3891 22.5669 37.3947 16.0757C37.3947 15.8381 37.3362 15.639 37.2082 15.4578C36.9938 15.1488 36.732 14.926 36.3422 14.9231C35.6266 14.9171 34.9138 14.8904 34.1982 14.8874C31.6366 14.8815 29.0749 14.8755 26.5133 14.8785C24.8371 14.8785 23.1637 14.8933 21.4875 14.8993C21.0225 14.8993 20.7023 15.1518 20.4517 15.541C20.4294 15.5826 20.4155 15.636 20.3849 15.7103ZM35.6962 20.3834C35.6322 20.3804 35.5849 20.3745 35.5403 20.3745C34.6159 20.3656 33.6942 20.3566 32.7698 20.3477C32.4441 20.3448 32.2909 20.1754 32.2909 19.8219C32.2909 18.8504 32.2881 17.882 32.2965 16.9105C32.2965 16.7709 32.2659 16.7263 32.1294 16.7263C28.0057 16.7293 23.8793 16.7293 19.7556 16.7293C19.2934 16.7293 18.9815 16.9937 18.7421 17.3769C18.639 17.5403 18.6752 17.6027 18.8674 17.6087C19.2767 17.6235 19.6832 17.6384 20.0925 17.6384C23.1358 17.6413 26.1792 17.6443 29.2225 17.6413C29.3617 17.6413 29.4675 17.68 29.5678 17.7839C29.8936 18.1226 30.2305 18.4494 30.5535 18.791C31.8733 20.1903 33.1847 21.5984 34.5045 22.9977C34.7161 23.2205 34.8219 23.4522 34.8219 23.776C34.8191 25.1485 34.8414 26.5181 34.847 27.8906C34.8553 31.3516 34.8609 34.8125 34.8665 38.2705C34.8665 38.3507 34.8748 38.4339 34.8776 38.5379C34.9472 38.5052 34.9946 38.4874 35.0363 38.4636C35.415 38.2438 35.6405 37.9289 35.6461 37.4476C35.6545 36.8 35.6907 36.1524 35.6907 35.5018C35.6962 30.5108 35.6962 25.5229 35.699 20.5319C35.7046 20.4874 35.699 20.4428 35.6962 20.3834ZM29.6986 19.2277C29.6959 19.2664 29.6903 19.2931 29.6903 19.3228C29.7014 20.5111 29.7126 21.6965 29.7237 22.8848C29.7265 23.0868 29.7293 23.0898 29.9186 23.0898C31.0073 23.0898 32.0988 23.0868 33.1875 23.0838C33.2265 23.0838 33.2627 23.0749 33.2961 23.0719C32.096 21.7886 30.9015 20.5111 29.6986 19.2277ZM33.2153 17.4334C33.1958 17.4482 33.1791 17.4631 33.1596 17.4779C33.1569 17.5017 33.1513 17.5255 33.1513 17.5492C33.1485 18.1523 33.1485 18.7554 33.1429 19.3614C33.1429 19.4684 33.1958 19.4684 33.2682 19.4684C33.8307 19.4684 34.3903 19.4684 34.9528 19.4684C34.9834 19.4684 35.0113 19.4595 35.0586 19.4505C34.4349 18.7673 33.8251 18.1018 33.2153 17.4334Z" fill="url(#paint3_linear_1_136)"/>
<path d="M22.8458 34.9081C20.7965 35.0804 18.1819 32.9889 18.1847 29.935C18.1847 27.2494 20.3343 24.9559 22.8096 24.9381C25.438 24.9203 27.557 27.3563 27.5653 29.9587C27.5681 32.4631 25.374 35.0655 22.8458 34.9081ZM25.2849 33.191C25.2543 33.1494 25.2431 33.1315 25.2264 33.1137C24.3995 32.2314 23.5753 31.3461 22.7455 30.4667C22.701 30.4192 22.6147 30.3925 22.5478 30.3925C21.8573 30.3865 21.164 30.3865 20.4735 30.3895C20.0475 30.3925 19.6187 30.4073 19.1927 30.4133C19.0646 30.4162 19.0256 30.4667 19.0506 30.6064C19.3569 32.3175 20.2981 33.4197 21.8573 33.9099C22.4337 34.0911 23.0268 34.0495 23.6115 33.9634C24.2324 33.8742 24.7698 33.5801 25.2849 33.191ZM23.3135 25.8471C23.3108 25.8917 23.3052 25.9214 23.3052 25.9511C23.3052 27.1929 23.3024 28.4347 23.308 29.6765C23.308 29.7389 23.3497 29.8161 23.3915 29.8637C23.915 30.4251 24.4384 30.9866 24.9647 31.5422C25.2431 31.8333 25.5299 32.1155 25.8084 32.4037C25.8835 32.4839 25.942 32.478 25.9977 32.3859C26.02 32.3472 26.045 32.3116 26.0673 32.2759C27.0335 30.7103 26.9054 28.6159 25.761 27.1929C25.1206 26.3938 24.2853 25.9927 23.3135 25.8471ZM19.02 29.4478C20.1811 29.5042 21.3088 29.4775 22.4337 29.4864C22.442 29.4478 22.4504 29.427 22.4504 29.4091C22.4448 28.2773 22.4392 27.1424 22.4337 26.0105C22.4337 25.8828 22.3808 25.865 22.2778 25.8828C20.7547 26.1561 19.7384 27.08 19.2149 28.6219C19.1286 28.8714 19.0896 29.1418 19.02 29.4478Z" fill="url(#paint4_linear_1_136)"/>
<path d="M17.7476 36.7531C17.7476 36.4976 17.7504 36.2599 17.7476 36.0223C17.7449 35.8945 17.8145 35.8826 17.9091 35.8826C18.6748 35.8797 19.4406 35.8648 20.2063 35.8648C23.0185 35.8648 25.8307 35.8648 28.643 35.8678C30.0825 35.8678 31.5192 35.8767 32.9588 35.8737C33.0813 35.8737 33.1342 35.9034 33.1286 36.0431C33.1203 36.2748 33.1258 36.5065 33.1258 36.7471C28.0026 36.7531 22.8793 36.7531 17.7476 36.7531Z" fill="#281C51"/>
<path d="M33.1342 37.8906C33.1342 38.1847 33.1342 38.4699 33.1342 38.7699C28.0081 38.7699 22.8848 38.7699 17.7449 38.7699C17.7449 38.4847 17.7449 38.1936 17.7449 37.8906C22.8681 37.8906 27.9914 37.8906 33.1342 37.8906Z" fill="#281C51"/>
<path d="M22.47 21.1765C23.826 21.1765 25.1792 21.1765 26.5352 21.1765C26.7217 21.1765 26.7217 21.1765 26.7217 21.3785C26.7217 21.5627 26.7134 21.7439 26.7245 21.9281C26.7301 22.0529 26.6883 22.0855 26.5742 22.0855C25.6832 22.0826 24.7922 22.0826 23.9012 22.0826C22.0579 22.0826 20.2174 22.0826 18.3741 22.0826C18.1876 22.0826 18.1876 22.0826 18.1876 21.8806C18.1876 21.6964 18.1932 21.5151 18.1848 21.331C18.1792 21.2062 18.221 21.1705 18.3352 21.1735C19.2262 21.1765 20.1172 21.1765 21.0082 21.1765C21.4954 21.1765 21.9827 21.1765 22.47 21.1765Z" fill="#281C51"/>
<path d="M26.7133 23.1082C26.7133 23.4201 26.7133 23.7053 26.7133 24.0024C23.876 24.0024 21.0442 24.0024 18.1875 24.0024C18.1875 23.7261 18.1847 23.4498 18.193 23.1765C18.193 23.1527 18.2738 23.1141 18.3183 23.1111C18.8696 23.1052 19.4237 23.1082 19.975 23.1082C22.1691 23.1082 24.366 23.1082 26.5601 23.1082C26.6075 23.1082 26.652 23.1082 26.7133 23.1082Z" fill="#281C51"/>
<path d="M28.434 26.4588C28.434 26.1528 28.434 25.8617 28.434 25.5616C28.4869 25.5587 28.5314 25.5527 28.576 25.5527C30.0461 25.5527 31.5163 25.5557 32.9836 25.5497C33.1145 25.5497 33.1507 25.5913 33.1451 25.725C33.1368 25.9657 33.1424 26.2063 33.1424 26.4588C31.5664 26.4588 30.0043 26.4588 28.434 26.4588Z" fill="#281C51"/>
<path d="M33.1339 28.0879C33.1339 28.385 33.1339 28.6761 33.1339 28.9791C31.5719 28.9791 30.0098 28.9791 28.4367 28.9791C28.4367 28.691 28.4367 28.3969 28.4367 28.0879C29.9987 28.0879 31.5635 28.0879 33.1339 28.0879Z" fill="#281C51"/>
<path d="M33.1339 30.6142C33.1339 30.9113 33.1339 31.1994 33.1339 31.4995C31.5663 31.4995 30.0071 31.4995 28.4367 31.4995C28.4367 31.2054 28.4367 30.9172 28.4367 30.6142C29.9987 30.6142 31.5607 30.6142 33.1339 30.6142Z" fill="#281C51"/>
<path d="M33.1229 34.0168C31.5581 34.0168 29.9989 34.0168 28.4312 34.0168C28.4312 33.7197 28.4312 33.4345 28.4312 33.1315C28.4814 33.1285 28.5315 33.1226 28.5816 33.1226C30.0434 33.1315 31.5024 33.1404 32.9642 33.1463C33.084 33.1463 33.1285 33.179 33.1257 33.3097C33.1174 33.5414 33.1229 33.7732 33.1229 34.0168Z" fill="#281C51"/>
</g>
<defs>
<linearGradient id="paint0_linear_1_136" x1="1.71115" y1="27.5113" x2="52.2814" y2="27.5113" gradientUnits="userSpaceOnUse">
<stop stop-color="#00C0B4"/>
<stop offset="1" stop-color="#29C9F3"/>
</linearGradient>
<linearGradient id="paint1_linear_1_136" x1="6.97295" y1="6.14616" x2="13.9439" y2="6.14616" gradientUnits="userSpaceOnUse">
<stop stop-color="#00C0B4"/>
<stop offset="1" stop-color="#29C9F3"/>
</linearGradient>
<linearGradient id="paint2_linear_1_136" x1="43.3763" y1="45.6189" x2="50.3472" y2="45.6189" gradientUnits="userSpaceOnUse">
<stop stop-color="#00C0B4"/>
<stop offset="1" stop-color="#29C9F3"/>
</linearGradient>
<linearGradient id="paint3_linear_1_136" x1="17.0652" y1="41.2948" x2="41.0331" y2="37.553" gradientUnits="userSpaceOnUse">
<stop stop-color="#0491B2"/>
<stop offset="1" stop-color="#29F4F4"/>
</linearGradient>
<linearGradient id="paint4_linear_1_136" x1="18.619" y1="34.918" x2="28.6571" y2="33.1096" gradientUnits="userSpaceOnUse">
<stop stop-color="#0491B2"/>
<stop offset="1" stop-color="#29F4F4"/>
</linearGradient>
<clipPath id="clip0_1_136">
<rect width="22.2222" height="27.2749" fill="white" transform="translate(16.0351 14.0176)"/>
</clipPath>
</defs>
</svg>
